<svg xmlns="http://www.w3.org/2000/svg" version="1.1" xmlns:xlink="http://www.w3.org/1999/xlink" width="512" height="512" x="0" y="0" viewBox="0 0 48 48" style="enable-background:new 0 0 512 512" xml:space="preserve" class=""><g><g data-name="12-thunderstroms"><path fill="#636978" d="M6 12c0-.113 0 .114 0 0A11 11 0 0 1 17 1a11.784 11.784 0 0 1 10 6c1.017-.469 2-2 6-2 3.807 0 7.192 3.437 8 7 3.1 1.7 6 5.215 6 9a10 10 0 0 1-10 10H11A10 10 0 0 1 1 21a10.537 10.537 0 0 1 5-9z" opacity="1" data-original="#636978" class=""></path><path fill="#7E8596" d="M47 21c0-3.78-2.9-7.3-6-9a9.69 9.69 0 0 0-3.03-4.97A7.626 7.626 0 0 0 33 5a8.821 8.821 0 0 0-4.18.85c-.83.43-1.32.92-1.82 1.15a11.784 11.784 0 0 0-10-6A10.986 10.986 0 0 0 6.041 11.189 10.94 10.94 0 0 1 11 10a11.784 11.784 0 0 1 10 6c.5-.23.99-.72 1.82-1.15A8.821 8.821 0 0 1 27 14a7.626 7.626 0 0 1 4.97 2.03A9.69 9.69 0 0 1 35 21c3.1 1.7 6 5.22 6 9 0 .056-.007.11-.008.165A10 10 0 0 0 47 21z" opacity="1" data-original="#7e8596" class=""></path><path fill="#FFD747" d="m13 47 20-16h-6.193l6.136-6H22.716l-8.182 8h7.216z" opacity="1" data-original="#ffd747" class=""></path><path fill="#414952" d="M22.716 25h-5l-6.136 6h5z" opacity="1" data-original="#414952"></path><path fill="#FF9500" d="m22.716 25-8.182 8h3l8.182-8zM21.75 33 13 47l6-4.8 5.75-9.2z" opacity="1" data-original="#ff9500" class=""></path><ellipse cx="35.684" cy="11.695" fill="#FAFCFF" rx="1.642" ry="2.286" transform="rotate(-45 35.701 11.7)" opacity="1" data-original="#fafcff"></ellipse><ellipse cx="38.427" cy="13.208" fill="#FAFCFF" rx=".413" ry=".574" transform="rotate(-45 38.446 13.214)" opacity="1" data-original="#fafcff"></ellipse><g fill="#70E1FF"><path d="m36.586 31-7.293 7.293a1 1 0 1 0 1.414 1.414l8-8a.982.982 0 0 0 .255-.9A10.065 10.065 0 0 1 37 31zM9.683 30.9l-3.39 3.39a1 1 0 1 0 1.414 1.414l4-4A1 1 0 0 0 12 31h-1a10.029 10.029 0 0 1-1.317-.1zM28 48a1 1 0 0 1-.707-1.707l3-3a1 1 0 0 1 1.414 1.414l-3 3A1 1 0 0 1 28 48zM33 43a1 1 0 0 1-.707-1.707l2-2a1 1 0 0 1 1.414 1.414l-2 2A1 1 0 0 1 33 43zM37 39a1 1 0 0 1-.707-1.707l2-2a1 1 0 0 1 1.414 1.414l-2 2A1 1 0 0 1 37 39zM38 43a1 1 0 0 1-.707-1.707l2-2a1 1 0 0 1 1.414 1.414l-2 2A1 1 0 0 1 38 43zM27 43a1 1 0 0 1-.707-1.707l1-1a1 1 0 0 1 1.414 1.414l-1 1A1 1 0 0 1 27 43zM9 46a1 1 0 0 1-.707-1.707l2-2a1 1 0 0 1 1.414 1.414l-2 2A1 1 0 0 1 9 46zM1 48a1 1 0 0 1-.707-1.707l2-2a1 1 0 0 1 1.414 1.414l-2 2A1 1 0 0 1 1 48zM5 44a1 1 0 0 1-.707-1.707l7-7a1 1 0 0 1 1.414 1.414l-7 7A1 1 0 0 1 5 44zM3 40a1 1 0 0 1-.707-1.707l2-2a1 1 0 0 1 1.414 1.414l-2 2A1 1 0 0 1 3 40z" fill="#70E1FF" opacity="1" data-original="#70e1ff"></path></g><circle cx="41" cy="34" r="1" fill="#C4F3FF" opacity="1" data-original="#c4f3ff"></circle><circle cx="36" cy="44" r="1" fill="#C4F3FF" opacity="1" data-original="#c4f3ff"></circle><circle cx="25" cy="44" r="1" fill="#C4F3FF" opacity="1" data-original="#c4f3ff"></circle><circle cx="23" cy="46" r="1" fill="#C4F3FF" opacity="1" data-original="#c4f3ff"></circle><circle cx="34" cy="46" r="1" fill="#C4F3FF" opacity="1" data-original="#c4f3ff"></circle><circle cx="13" cy="41" r="1" fill="#C4F3FF" opacity="1" data-original="#c4f3ff"></circle><circle cx="15.5" cy="38.5" r="1" fill="#C4F3FF" opacity="1" data-original="#c4f3ff"></circle><circle cx="1" cy="41" r="1" fill="#C4F3FF" opacity="1" data-original="#c4f3ff"></circle></g></g></svg>