<svg xmlns="http://www.w3.org/2000/svg" version="1.1" xmlns:xlink="http://www.w3.org/1999/xlink" width="512" height="512" x="0" y="0" viewBox="0 0 64 64" style="enable-background:new 0 0 512 512" xml:space="preserve"><g><path fill="#778CBC" d="M14.55 46.676a.857.857 0 0 0-.36-.07 1.01 1.01 0 1 0 .36.07z" opacity="1" data-original="#778cbc"></path><path fill="#98ACF8" d="M14.55 46.676a.857.857 0 0 0-.36-.07.998.998 0 0 0-.87 1.49.856.856 0 0 0 .36.07.998.998 0 0 0 .87-1.49z" opacity="1" data-original="#98acf8"></path><path fill="#778CBC" d="M20.486 46.676a.857.857 0 0 0-.36-.07 1.01 1.01 0 1 0 .36.07z" opacity="1" data-original="#778cbc"></path><path fill="#98ACF8" d="M20.486 46.676a.857.857 0 0 0-.36-.07.998.998 0 0 0-.87 1.49.856.856 0 0 0 .36.07.998.998 0 0 0 .87-1.49z" opacity="1" data-original="#98acf8"></path><path fill="#778CBC" d="M26.423 46.678a.857.857 0 0 0-.36-.07 1.01 1.01 0 1 0 .36.07z" opacity="1" data-original="#778cbc"></path><path fill="#98ACF8" d="M26.423 46.678a.857.857 0 0 0-.36-.07.998.998 0 0 0-.87 1.49.856.856 0 0 0 .36.07.998.998 0 0 0 .87-1.49z" opacity="1" data-original="#98acf8"></path><path fill="#778CBC" d="M23.422 51.615a.857.857 0 0 0-.36-.07 1.01 1.01 0 1 0 .36.07z" opacity="1" data-original="#778cbc"></path><path fill="#98ACF8" d="M23.422 51.615a.857.857 0 0 0-.36-.07.998.998 0 0 0-.87 1.49.856.856 0 0 0 .36.07.998.998 0 0 0 .87-1.49z" opacity="1" data-original="#98acf8"></path><path fill="#778CBC" d="M32.359 46.678a.857.857 0 0 0-.36-.07 1.01 1.01 0 1 0 .36.07z" opacity="1" data-original="#778cbc"></path><path fill="#98ACF8" d="M32.359 46.678a.857.857 0 0 0-.36-.07.998.998 0 0 0-.87 1.49.856.856 0 0 0 .36.07.998.998 0 0 0 .87-1.49z" opacity="1" data-original="#98acf8"></path><path fill="#778CBC" d="M38.297 46.678a.857.857 0 0 0-.36-.07 1.01 1.01 0 1 0 .36.07z" opacity="1" data-original="#778cbc"></path><path fill="#98ACF8" d="M38.297 46.678a.857.857 0 0 0-.36-.07.998.998 0 0 0-.87 1.49.856.856 0 0 0 .36.07.998.998 0 0 0 .87-1.49z" opacity="1" data-original="#98acf8"></path><path fill="#778CBC" d="M41.235 51.615a.857.857 0 0 0-.36-.07 1.01 1.01 0 1 0 .36.07z" opacity="1" data-original="#778cbc"></path><path fill="#98ACF8" d="M41.235 51.615a.857.857 0 0 0-.36-.07.998.998 0 0 0-.87 1.49.856.856 0 0 0 .36.07.998.998 0 0 0 .87-1.49z" opacity="1" data-original="#98acf8"></path><path fill="#778CBC" d="M44.235 46.678a.857.857 0 0 0-.36-.07 1.01 1.01 0 1 0 .36.07z" opacity="1" data-original="#778cbc"></path><path fill="#98ACF8" d="M44.235 46.678a.857.857 0 0 0-.36-.07.998.998 0 0 0-.87 1.49.856.856 0 0 0 .36.07.998.998 0 0 0 .87-1.49z" opacity="1" data-original="#98acf8"></path><path fill="#778CBC" d="M47.172 51.615a.857.857 0 0 0-.36-.07 1.01 1.01 0 1 0 .36.07z" opacity="1" data-original="#778cbc"></path><path fill="#98ACF8" d="M47.172 51.615a.857.857 0 0 0-.36-.07.998.998 0 0 0-.87 1.49.856.856 0 0 0 .36.07.998.998 0 0 0 .87-1.49z" opacity="1" data-original="#98acf8"></path><path fill="#778CBC" d="M50.172 46.678a.857.857 0 0 0-.36-.07 1.01 1.01 0 1 0 .36.07z" opacity="1" data-original="#778cbc"></path><path fill="#98ACF8" d="M50.172 46.678a.857.857 0 0 0-.36-.07.998.998 0 0 0-.87 1.49.856.856 0 0 0 .36.07.998.998 0 0 0 .87-1.49z" opacity="1" data-original="#98acf8"></path><path fill="#778CBC" d="M29.36 51.615a.857.857 0 0 0-.36-.07 1.01 1.01 0 1 0 .36.07z" opacity="1" data-original="#778cbc"></path><path fill="#98ACF8" d="M29.36 51.615a.857.857 0 0 0-.36-.07.998.998 0 0 0-.87 1.49.856.856 0 0 0 .36.07.998.998 0 0 0 .87-1.49z" opacity="1" data-original="#98acf8"></path><path fill="#778CBC" d="M35.297 51.615a.857.857 0 0 0-.36-.07 1.01 1.01 0 1 0 .36.07z" opacity="1" data-original="#778cbc"></path><path fill="#98ACF8" d="M35.297 51.615a.857.857 0 0 0-.36-.07.998.998 0 0 0-.87 1.49.856.856 0 0 0 .36.07.998.998 0 0 0 .87-1.49z" opacity="1" data-original="#98acf8"></path><path fill="#778CBC" d="M17.485 51.615a.857.857 0 0 0-.36-.07 1.01 1.01 0 1 0 .36.07z" opacity="1" data-original="#778cbc"></path><path fill="#98ACF8" d="M17.485 51.615a.857.857 0 0 0-.36-.07.998.998 0 0 0-.87 1.49.856.856 0 0 0 .36.07.998.998 0 0 0 .87-1.49z" opacity="1" data-original="#98acf8"></path><path fill="#778CBC" d="M11.547 51.615a.857.857 0 0 0-.36-.07 1.01 1.01 0 1 0 .36.07z" opacity="1" data-original="#778cbc"></path><path fill="#98ACF8" d="M11.547 51.615a.857.857 0 0 0-.36-.07.998.998 0 0 0-.87 1.49.856.856 0 0 0 .36.07.998.998 0 0 0 .87-1.49z" opacity="1" data-original="#98acf8"></path><path fill="#C8CBCE" d="M59.85 34.145a11.537 11.537 0 0 1-10.07 9.46 12.498 12.498 0 0 1-1.51.09H13.33a9.35 9.35 0 0 1-.71-18.67 9.64 9.64 0 0 1 2.59.16 1.104 1.104 0 0 0 1.34-.94 15.549 15.549 0 0 1 29.86-4.08 1.153 1.153 0 0 0 1.18.72c.33-.03.67-.04 1-.04a11.426 11.426 0 0 1 11.26 13.3z" opacity="1" data-original="#c8cbce"></path><path fill="#DBE2EB" d="M13.333 43.698h31.51c5.644 0 11.893-3.96 12.722-9.552C58.5 27.841 54.346 21.543 47 22.181a1.15 1.15 0 0 1-1.18-.72c-2.313-5.698-7.3-11.005-13.82-11.005a15.567 15.567 0 0 0-15.453 13.786 1.105 1.105 0 0 1-1.337.947 9.348 9.348 0 1 0-1.877 18.51z" opacity="1" data-original="#dbe2eb"></path><g fill="#FFFFFF"><path d="M19.177 22.51a13.454 13.454 0 0 1 8.485-9.258 1 1 0 0 1 .679 1.881 11.451 11.451 0 0 0-7.227 7.88 1 1 0 0 1-1.937-.503zM31.86 13.376a1 1 0 1 1-1.017-.983 1 1 0 0 1 1.018.983z" fill="#FFFFFF" opacity="1" data-original="#ffffff"></path></g></g></svg>