<svg xmlns="http://www.w3.org/2000/svg" version="1.1" xmlns:xlink="http://www.w3.org/1999/xlink" width="512" height="512" x="0" y="0" viewBox="0 0 48 48" style="enable-background:new 0 0 512 512" xml:space="preserve"><g><g data-name="sun rainy"><circle cx="12" cy="13" r="8" fill="#FFE26F" opacity="1" data-original="#ffe26f"></circle><path fill="#2594EF" d="M40.937 6.055a7.001 7.001 0 0 0-13.283-2.012A5.092 5.092 0 0 0 27 4a6.007 6.007 0 0 0-6 6 5.173 5.173 0 0 0 .06.781A5.943 5.943 0 0 0 18 16a6.007 6.007 0 0 0 6 6h16a8 8 0 0 0 .936-15.945z" opacity="1" data-original="#2594ef"></path><path fill="#1974D8" d="M31.599 12.342A9.038 9.038 0 0 0 23 6c-.164 0-.325.022-.487.03A5.968 5.968 0 0 0 21 10a5.173 5.173 0 0 0 .06.781A5.943 5.943 0 0 0 18 16a6.007 6.007 0 0 0 6 6h15a10 10 0 0 0-7.401-9.658z" opacity="1" data-original="#1974d8"></path><path fill="#39C3FC" d="M29.936 14.055a7.001 7.001 0 0 0-13.282-2.012A5.08 5.08 0 0 0 16 12a6.007 6.007 0 0 0-6 6 5.173 5.173 0 0 0 .06.781A5.943 5.943 0 0 0 7 24a6.007 6.007 0 0 0 6 6h16a8 8 0 0 0 .936-15.945z" opacity="1" data-original="#39c3fc"></path><path fill="#FFE26F" d="M2 14H1a1 1 0 0 1 0-2h1a1 1 0 0 1 0 2zM2.475 19.5a1 1 0 0 1-.501-1.866l.866-.5a1 1 0 1 1 1 1.732l-.866.5a.997.997 0 0 1-.5.134zM16.999 5.34a1 1 0 0 1-.865-1.5l.5-.866a1 1 0 1 1 1.732 1l-.5.866a1 1 0 0 1-.867.5zM12 4a1 1 0 0 1-1-1V2a1 1 0 0 1 2 0v1a1 1 0 0 1-1 1zM7.001 5.34a1 1 0 0 1-.867-.5l-.5-.866a1 1 0 0 1 1.732-1l.5.866a1 1 0 0 1-.865 1.5zM3.339 9a.998.998 0 0 1-.499-.134l-.866-.5a1 1 0 0 1 1-1.732l.866.5A1 1 0 0 1 3.339 9z" opacity="1" data-original="#ffe26f"></path><g fill="#39C3FC"><path d="M7.999 36a1 1 0 0 1-.893-1.447l1-2a1 1 0 1 1 1.788.894l-1 2A1 1 0 0 1 8 36zM12.999 36a1 1 0 0 1-.893-1.447l1-2a1 1 0 1 1 1.789.894l-1 2a1 1 0 0 1-.896.553zM17.999 36a1 1 0 0 1-.893-1.447l1-2a1 1 0 1 1 1.788.894l-1 2A1 1 0 0 1 18 36zM22.999 36a1 1 0 0 1-.893-1.447l1-2a1 1 0 1 1 1.788.894l-1 2A1 1 0 0 1 23 36zM27.999 36a1 1 0 0 1-.893-1.447l1-2a1 1 0 1 1 1.788.894l-1 2A1 1 0 0 1 28 36zM32.999 36a1 1 0 0 1-.893-1.447l1-2a1 1 0 0 1 1.788.894l-1 2A1 1 0 0 1 33 36zM37.999 36a1 1 0 0 1-.893-1.447l1-2a1 1 0 1 1 1.788.894l-1 2A1 1 0 0 1 38 36zM42.999 36a1 1 0 0 1-.893-1.447l1-2a1 1 0 1 1 1.788.894l-1 2A1 1 0 0 1 43 36zM8.999 42a1 1 0 0 1-.893-1.447l1-2a1 1 0 1 1 1.789.894l-1 2a1 1 0 0 1-.896.553zM13.999 42a1 1 0 0 1-.893-1.447l1-2a1 1 0 1 1 1.789.894l-1 2a1 1 0 0 1-.896.553zM18.999 42a1 1 0 0 1-.893-1.447l1-2a1 1 0 1 1 1.788.894l-1 2A1 1 0 0 1 19 42zM23.999 42a1 1 0 0 1-.893-1.447l1-2a1 1 0 1 1 1.788.894l-1 2A1 1 0 0 1 24 42zM28.999 42a1 1 0 0 1-.893-1.447l1-2a1 1 0 1 1 1.788.894l-1 2A1 1 0 0 1 29 42zM33.999 42a1 1 0 0 1-.893-1.447l1-2a1 1 0 1 1 1.788.894l-1 2A1 1 0 0 1 34 42zM38.999 42a1 1 0 0 1-.893-1.447l1-2a1 1 0 0 1 1.788.894l-1 2A1 1 0 0 1 39 42zM43.999 42a1 1 0 0 1-.893-1.447l1-2a1 1 0 1 1 1.788.894l-1 2A1 1 0 0 1 44 42zM4.999 48a1 1 0 0 1-.893-1.447l1-2a1 1 0 0 1 1.788.894l-1 2A1 1 0 0 1 5 48zM9.999 48a1 1 0 0 1-.893-1.447l1-2a1 1 0 1 1 1.789.894l-1 2a1 1 0 0 1-.896.553zM14.999 48a1 1 0 0 1-.893-1.447l1-2a1 1 0 1 1 1.789.894l-1 2a1 1 0 0 1-.896.553zM19.999 48a1 1 0 0 1-.893-1.447l1-2a1 1 0 1 1 1.788.894l-1 2A1 1 0 0 1 20 48zM24.999 48a1 1 0 0 1-.893-1.447l1-2a1 1 0 1 1 1.788.894l-1 2A1 1 0 0 1 25 48zM29.999 48a1 1 0 0 1-.893-1.447l1-2a1 1 0 1 1 1.788.894l-1 2A1 1 0 0 1 30 48zM34.999 48a1 1 0 0 1-.893-1.447l1-2a1 1 0 1 1 1.788.894l-1 2A1 1 0 0 1 35 48zM39.999 48a1 1 0 0 1-.893-1.447l1-2a1 1 0 0 1 1.788.894l-1 2A1 1 0 0 1 40 48z" fill="#39C3FC" opacity="1" data-original="#39c3fc"></path></g></g></g></svg>