<svg xmlns="http://www.w3.org/2000/svg" version="1.1" xmlns:xlink="http://www.w3.org/1999/xlink" width="512" height="512" x="0" y="0" viewBox="0 0 497 497" style="enable-background:new 0 0 512 512" xml:space="preserve"><g><g fill="#FFD900"><path d="M231.933 49.7c0 9.149 7.417 16.567 16.567 16.567 9.149 0 16.567-7.417 16.567-16.567V16.567C265.067 7.417 257.649 0 248.5 0c-9.15 0-16.567 7.417-16.567 16.567zM231.933 480.433c0 9.15 7.417 16.567 16.567 16.567 9.149 0 16.567-7.417 16.567-16.567V447.3c0-9.149-7.417-16.567-16.567-16.567s-16.567 7.417-16.567 16.567zM447.3 231.933c-9.149 0-16.567 7.417-16.567 16.567s7.417 16.567 16.567 16.567h33.133c9.15 0 16.567-7.417 16.567-16.567s-7.417-16.567-16.567-16.567zM16.567 231.933C7.417 231.933 0 239.35 0 248.5s7.417 16.567 16.567 16.567H49.7c9.149 0 16.567-7.417 16.567-16.567S58.85 231.933 49.7 231.933z" fill="#FFD900" opacity="1" data-original="#ffd900"></path><circle cx="248.5" cy="248.5" r="149.1" fill="#FFD900" opacity="1" data-original="#ffd900"></circle><path d="M377.358 96.213c-6.47 6.47-6.47 16.959 0 23.429s16.959 6.47 23.429 0l23.429-23.429c6.47-6.47 6.47-16.959 0-23.429s-16.959-6.47-23.429 0zM72.784 400.787c-6.47 6.47-6.47 16.959 0 23.429s16.959 6.47 23.429 0l23.429-23.429c6.47-6.47 6.47-16.959 0-23.429s-16.959-6.47-23.429 0zM400.787 377.358c-6.47-6.47-16.959-6.47-23.429 0s-6.47 16.959 0 23.429l23.429 23.429c6.47 6.47 16.959 6.47 23.429 0s6.47-16.959 0-23.429zM96.213 72.784c-6.47-6.47-16.959-6.47-23.429 0s-6.47 16.959 0 23.429l23.429 23.429c6.47 6.47 16.959 6.47 23.429 0s6.47-16.959 0-23.429z" fill="#FFD900" opacity="1" data-original="#ffd900"></path></g><path fill="#FFA400" d="M172.427 72.343a7.501 7.501 0 0 1-6.932-4.632l-6.34-15.306a7.5 7.5 0 1 1 13.858-5.74l6.34 15.306a7.5 7.5 0 0 1-6.926 10.372zM330.922 454.983a7.502 7.502 0 0 1-6.932-4.632l-6.34-15.306a7.498 7.498 0 0 1 4.059-9.799 7.498 7.498 0 0 1 9.799 4.059l6.34 15.306a7.498 7.498 0 0 1-4.059 9.799 7.472 7.472 0 0 1-2.867.573zM64.843 179.944a7.468 7.468 0 0 1-2.867-.573l-15.306-6.34c-3.827-1.585-5.644-5.972-4.059-9.799s5.974-5.647 9.799-4.059l15.306 6.34a7.5 7.5 0 0 1-2.873 14.431zM447.483 338.44a7.468 7.468 0 0 1-2.867-.573l-15.306-6.34a7.497 7.497 0 0 1-4.058-9.799c1.586-3.826 5.975-5.646 9.799-4.059l15.306 6.34a7.499 7.499 0 0 1 4.059 9.799 7.505 7.505 0 0 1-6.933 4.632zM49.56 338.44a7.501 7.501 0 0 1-2.873-14.431l15.306-6.34a7.5 7.5 0 0 1 5.74 13.858l-15.306 6.34a7.487 7.487 0 0 1-2.867.573zM432.2 179.944a7.502 7.502 0 0 1-6.932-4.632 7.498 7.498 0 0 1 4.059-9.799l15.306-6.34a7.5 7.5 0 0 1 5.74 13.858l-15.306 6.34a7.472 7.472 0 0 1-2.867.573zM166.121 454.983a7.5 7.5 0 0 1-6.926-10.372l6.34-15.306a7.498 7.498 0 0 1 9.799-4.059 7.5 7.5 0 0 1 4.059 9.799l-6.34 15.306a7.503 7.503 0 0 1-6.932 4.632zM324.616 72.343a7.468 7.468 0 0 1-2.867-.573 7.499 7.499 0 0 1-4.059-9.799l6.34-15.306c1.586-3.826 5.976-5.646 9.799-4.059a7.499 7.499 0 0 1 4.059 9.799l-6.34 15.306a7.502 7.502 0 0 1-6.932 4.632z" opacity="1" data-original="#ffa400"></path><path fill="#FFBB00" d="M248.5 99.4c-3.87 0-7.705.148-11.5.437 76.972 5.871 137.6 70.187 137.6 148.663S313.972 391.292 237 397.163c3.795.289 7.63.438 11.5.438 82.346 0 149.1-66.754 149.1-149.1S330.846 99.4 248.5 99.4zM49.7 231.933h-23c9.149 0 16.567 7.417 16.567 16.567 0 9.149-7.417 16.567-16.567 16.567h23c9.149 0 16.567-7.417 16.567-16.567 0-9.149-7.418-16.567-16.567-16.567zM480.433 231.933h-23c9.15 0 16.567 7.417 16.567 16.567 0 9.149-7.417 16.567-16.567 16.567h23c9.15 0 16.567-7.417 16.567-16.567 0-9.149-7.417-16.567-16.567-16.567zM248.5 0A16.5 16.5 0 0 0 237 4.657c3.119 3.013 5.067 7.231 5.067 11.91V49.7c0 4.679-1.948 8.897-5.067 11.909a16.5 16.5 0 0 0 11.5 4.657c9.149 0 16.567-7.417 16.567-16.567V16.567C265.067 7.417 257.649 0 248.5 0zM248.5 430.733a16.5 16.5 0 0 0-11.5 4.657c3.119 3.013 5.067 7.23 5.067 11.909v33.133c0 4.679-1.948 8.897-5.067 11.909a16.5 16.5 0 0 0 11.5 4.657c9.149 0 16.567-7.417 16.567-16.567V447.3c0-9.15-7.418-16.567-16.567-16.567zM424.216 72.784c-6.401-6.401-16.73-6.458-23.214-.194.07.068.145.125.214.194 6.47 6.47 6.47 16.959 0 23.429l-23.429 23.429c-.069.069-.145.126-.214.194 6.485 6.264 16.814 6.207 23.214-.194l23.429-23.429c6.47-6.47 6.47-16.959 0-23.429zM424.216 400.787l-23.429-23.429c-6.401-6.401-16.73-6.458-23.214-.194.07.067.145.125.214.194l23.429 23.429c6.47 6.47 6.47 16.959 0 23.429-.069.069-.145.126-.214.194 6.484 6.265 16.813 6.207 23.214-.194 6.47-6.47 6.47-16.959 0-23.429zM119.642 96.213 96.213 72.784c-6.393-6.393-16.703-6.457-23.189-.216.078.075.163.139.239.216l23.429 23.429c6.47 6.47 6.47 16.959 0 23.429-.077.077-.161.141-.239.216 6.486 6.241 16.797 6.176 23.189-.216 6.469-6.47 6.469-16.96 0-23.429zM119.642 377.358c-6.393-6.393-16.703-6.457-23.189-.216.078.075.162.139.239.216 6.47 6.47 6.47 16.959 0 23.429l-23.429 23.429c-.077.077-.161.141-.239.216 6.486 6.241 16.797 6.176 23.189-.216l23.429-23.429c6.469-6.47 6.469-16.959 0-23.429z" opacity="1" data-original="#ffbb00"></path></g></svg>