<svg xmlns="http://www.w3.org/2000/svg" version="1.1" xmlns:xlink="http://www.w3.org/1999/xlink" width="512" height="512" x="0" y="0" viewBox="0 0 512 512" style="enable-background:new 0 0 512 512" xml:space="preserve"><g><path fill="#DFDFDF" d="m364.084 443.053-8.018-13.846a201.103 201.103 0 0 0 73.019-72.93l13.836 8.035a217.11 217.11 0 0 1-78.837 78.74zM433.475 163.697A201.6 201.6 0 0 0 340.62 74.73l6.777-14.494a217.692 217.692 0 0 1 100.266 96.068zM92.615 140.621l-13.06-9.242a217.221 217.221 0 0 1 82.52-69.941l6.965 14.404a201.186 201.186 0 0 0-76.425 64.78zM140.83 438.767a215.99 215.99 0 0 1-60.433-56.963l13-9.328a200.02 200.02 0 0 0 55.976 52.761z" opacity="1" data-original="#dfdfdf"></path><circle cx="256" cy="120" r="56" fill="#F78F31" opacity="1" data-original="#f78f31"></circle><g fill="#FFDE8D"><path d="M336 112h24v16h-24zM248 16h16v24h-16zM152 112h24v16h-24zM248 200h16v24h-16zM306.304 58.37l15.998-15.997 11.312 11.313-15.997 15.997zM178.318 53.673l11.313-11.313 15.997 15.997-11.312 11.313zM306.29 181.673l11.313-11.313 15.997 15.997-11.312 11.313z" fill="#FFDE8D" opacity="1" data-original="#ffde8d"></path></g><path fill="#00A4FF" d="m322.274 330.344 23.996-23.996 11.313 11.312-23.996 23.996zM370.269 330.349l23.996-23.996 11.313 11.312-23.996 23.996zM418.264 330.354l23.996-23.996 11.313 11.312-23.996 23.996z" opacity="1" data-original="#00a4ff"></path><path fill="#7AB753" d="M336 416v13.36a34.654 34.654 0 0 1-33.67 34.63c-.32.01-.64.01-.97.01a34.328 34.328 0 0 1-15.32-3.55 34.563 34.563 0 0 1-18.11-40.21l2.66-9.72c.04-.16.09-.32.13-.48A93.77 93.77 0 0 0 264 344a72.013 72.013 0 0 1 71.05 60.27A73.208 73.208 0 0 1 336 416z" opacity="1" data-original="#7ab753"></path><path fill="#C18E6B" d="M240 488a72.014 72.014 0 0 1-71.05-60.27A73.21 73.21 0 0 1 168 416v-13.36a34.654 34.654 0 0 1 33.67-34.63c.32-.01.64-.01.97-.01a34.328 34.328 0 0 1 15.32 3.55 34.563 34.563 0 0 1 18.11 40.21l-2.66 9.72c-.04.16-.09.32-.13.48A93.77 93.77 0 0 0 240 488z" opacity="1" data-original="#c18e6b"></path><path fill="#0053A5" d="m216.836 270.239-40.694 10.152L135.535 256l40.607-24.391 40.694 10.152 3.873-15.524-25.171-6.279 17.733-10.652-8.238-13.715-17.733 10.652 6.279-25.171-15.523-3.873-10.153 40.695L128 241.863v-46.549l29.657-29.657-11.314-11.314L128 172.686V152h-16v20.686l-18.343-18.343-11.314 11.314L112 195.314v46.549l-39.903-23.969-10.153-40.695-15.523 3.873 6.279 25.171-17.733-10.652-8.238 13.715 17.733 10.652-25.171 6.279 3.873 15.524 40.694-10.152L104.465 256l-40.607 24.391-40.694-10.152-3.873 15.524 25.171 6.279-17.733 10.652 8.238 13.715L52.7 305.757l-6.279 25.171 15.523 3.873 10.153-40.695L112 270.137v46.549l-29.657 29.657 11.314 11.314L112 339.314V360h16v-20.686l18.343 18.343 11.314-11.314L128 316.686v-46.549l39.903 23.969 10.153 40.695 15.523-3.873-6.279-25.171 17.733 10.652 8.238-13.715-17.733-10.652 25.171-6.279z" opacity="1" data-original="#0053a5"></path><path fill="#00A4FF" d="M456 224a31.852 31.852 0 0 0-16 4.281l-2.256.977a40 40 0 1 0-75.262.627A31.997 31.997 0 1 0 344 288h112a32 32 0 0 0 0-64z" opacity="1" data-original="#00a4ff"></path><path fill="#008AFE" d="M374.98 256h.01a7.966 7.966 0 0 0 7.788-9.83 39.783 39.783 0 0 0-4.705-11.1 7.99 7.99 0 0 0-10.37-2.921 7.987 7.987 0 0 0-3.239 11.325 23.87 23.87 0 0 1 2.75 6.423 8.068 8.068 0 0 0 7.765 6.103zM428.22 231.099l-.047.087a5.604 5.604 0 0 0 1.584 7.132l3.837 2.884a5.628 5.628 0 0 0 8.283-1.723q.384-.684.745-1.378a5.631 5.631 0 0 0-2.913-7.817l-4.437-1.775a5.627 5.627 0 0 0-7.053 2.59z" opacity="1" data-original="#008afe"></path><path fill="#3B8B48" d="m335.05 404.27-23.12 23.12a88.464 88.464 0 0 1-35.13 67.01l-9.6-12.8a72.448 72.448 0 0 0 28.01-47.07l-24.49-24.49a92.89 92.89 0 0 0 3.05-19.58L296 412.69V392h16v12.69l17.84-17.85a71.134 71.134 0 0 1 5.21 17.43z" opacity="1" data-original="#3b8b48"></path><path fill="#936444" d="m208.79 397.47 24.49 24.49a92.89 92.89 0 0 0-3.05 19.58L208 419.31V440h-16v-12.69l-17.84 17.85a71.13 71.13 0 0 1-5.21-17.43l23.12-23.12a88.464 88.464 0 0 1 35.13-67.01l9.6 12.8a72.448 72.448 0 0 0-28.01 47.07z" opacity="1" data-original="#936444"></path></g></svg>