<svg xmlns="http://www.w3.org/2000/svg" version="1.1" xmlns:xlink="http://www.w3.org/1999/xlink" width="512" height="512" x="0" y="0" viewBox="0 0 512 512" style="enable-background:new 0 0 512 512" xml:space="preserve"><g><path d="M460.407 196.958c0 54.361-48 97.471-93.128 97.471-56.745 0-102.746-44.067-102.746-98.428 0-19.796 6.097-38.225 16.598-53.662 26.713-40.522 57.155-82.026 75.37-127.358 1.859-4.988 6.316-7.482 10.779-7.482s8.92 2.494 10.779 7.482c16.746 41.676 43.827 80.117 68.843 117.534 2.194 3.282 2.6 10.633 4.754 13.901 10.499 15.439 8.751 30.746 8.751 50.542z" style="" fill="#4DBBFF" data-original="#4dbbff"></path><path d="M470.025 196c0 54.36-46 98.43-102.75 98.43-41.6 0-77.43-23.69-93.58-57.76 18.12 12.46 40.33 19.79 64.34 19.79 61.02 0 110.48-47.38 110.48-105.83 0-6.18-.55-12.23-1.62-18.11 2.2 3.28 4.38 6.55 6.53 9.82 10.5 15.44 16.6 33.87 16.6 53.66z" style="" fill="#3192F4" data-original="#3192f4"></path><path d="M414.666 338.041c0 92.341-65.769 158.117-162.161 158.117-50.953 0-92.549-17.081-128.71-45.938-28.454-29.749-45.822-69.388-45.822-112.917 0-33.628 10.356-64.931 28.195-91.155 45.376-68.834 97.088-139.336 128.028-216.339 3.158-8.473 10.729-12.71 18.309-12.71 7.581 0 15.152 4.237 18.309 12.71 25.821 64.263 66.109 123.997 105.107 182.013 7.732 11.502 13.542 24.065 21.05 35.454 17.839 26.224 17.695 57.137 17.695 90.765z" style="" fill="#6CE3FF" data-original="#6ce3ff"></path><path d="M427.035 337.3c0 92.34-78.14 167.2-174.53 167.2-50.95 0-96.81-20.92-128.71-54.28 20.2 6.68 41.88 10.3 64.45 10.3 109.13 0 197.6-84.75 197.6-189.3 0-20.75-3.48-40.72-9.92-59.4 7.73 11.51 15.41 22.94 22.92 34.33 17.84 26.22 28.19 57.53 28.19 91.15z" style="" fill="#4DBBFF" data-original="#4dbbff"></path><path d="M389.771 337.303c0 71.649-61.577 129.931-137.266 129.931s-137.266-58.282-137.266-129.931c0-25.017 7.522-49.289 21.742-70.197l.304-.451c2.52-3.827 5.089-7.696 7.675-11.575 2.747-4.121 8.104-5.621 12.584-3.508 11.08 5.227 17.389 13.357 37.043 13.357 28.96 0 28.96-17.652 57.909-17.652 28.96 0 28.96 17.652 57.909 17.652 19.664 0 25.974-8.139 37.063-13.363 4.479-2.11 9.834-.61 12.58 3.51 2.587 3.881 5.157 7.751 7.678 11.58l.304.451c14.219 20.907 21.741 45.179 21.741 70.196z" style="" fill="#4DBBFF" data-original="#4dbbff"></path><path d="M389.775 337.3c0 71.65-61.58 129.93-137.27 129.93-16.13 0-31.62-2.65-46.01-7.51 90.94-7.97 164.05-74.98 177.22-160.67 4 12.3 6.06 25.18 6.06 38.25z" style="" fill="#3192F4" data-original="#3192f4"></path><path d="M41.97 102.199c0 18.784 5.469 36.29 14.901 51.013 22.172 21.44 45.031 36.969 78.548 36.969 52.301 0 90.165-35.682 90.165-87.983 0-34.322-15.624-59.123-39.81-80.989-14.318-8.7-31.127-13.71-49.105-13.71-52.301.001-94.699 42.399-94.699 94.7z" style="" fill="#F0F5F7" data-original="#f0f5f7"></path><path d="M231.365 102.2c0 52.3-42.39 94.7-94.7 94.7-33.52 0-62.96-17.41-79.79-43.69 14.29 8.65 31.06 13.63 48.98 13.63 52.3 0 94.7-42.4 94.7-94.7 0-18.78-5.47-36.28-14.89-51 27.4 16.6 45.7 46.69 45.7 81.06z" style="" fill="#DDE8ED" data-original="#dde8ed"></path><circle cx="188.244" cy="346.914" r="15" style="" fill="#3192F4" data-original="#3192f4"></circle><circle cx="245.323" cy="416.451" r="18" style="" fill="#3192F4" data-original="#3192f4"></circle><circle cx="323.768" cy="325.261" r="18" style="" fill="#3192F4" data-original="#3192f4"></circle><path d="M424.065 98.35c9.77 14.87 19.8 29.5 29.36 43.99 10.5 15.44 16.6 33.87 16.6 53.66 0 36.68-20.94 68.67-52 85.61M307.765 102.48c18.55-28 36.43-56.88 48.73-87.5 1.86-4.99 6.32-7.48 10.78-7.48 4.47 0 8.92 2.49 10.78 7.48 7.43 18.47 16.88 36.32 27.28 53.71M138.475 197.84c-10.88 16.24-21.77 32.32-32.31 48.31-17.84 26.22-28.19 57.53-28.19 91.15 0 92.34 78.14 167.2 174.53 167.2 89.88 0 163.89-65.09 173.48-148.75" style="stroke-linecap: round; stroke-linejoin: round; stroke-miterlimit: 10;" fill="none" stroke="#000000" stroke-width="15px" stroke-linecap="round" stroke-linejoin="round" stroke-miterlimit="10" data-original="#000000"></path><path d="M222.235 57.2c4.25-9.04 8.26-18.17 11.96-27.39 3.16-8.47 10.73-12.71 18.31-12.71 7.58 0 15.15 4.24 18.31 12.71 30.94 77 82.65 147.5 128.03 216.34 14.88 21.86 24.54 47.27 27.34 74.6M196.005 455.72c17.24 7.39 36.37 11.51 56.5 11.51 75.69 0 137.27-58.28 137.27-129.93 0-25.01-7.53-49.29-21.75-70.19l-.3-.46c-2.52-3.82-5.09-7.69-7.68-11.58a10.01 10.01 0 0 0-12.58-3.5c-11.09 5.22-17.4 13.36-37.06 13.36-28.95 0-28.95-17.65-57.91-17.65-28.95 0-28.95 17.65-57.91 17.65-19.65 0-25.96-8.13-37.04-13.36-4.48-2.11-9.84-.61-12.59 3.51-2.58 3.88-5.15 7.75-7.67 11.57l-.3.46c-14.22 20.9-21.75 45.18-21.75 70.19 0 40.55 19.73 76.82 50.57 100.66" style="stroke-linecap: round; stroke-linejoin: round; stroke-miterlimit: 10;" fill="none" stroke="#000000" stroke-width="15px" stroke-linecap="round" stroke-linejoin="round" stroke-miterlimit="10" data-original="#000000"></path><path d="M209.595 162.61c-17.37 20.95-43.59 34.29-72.93 34.29-52.3 0-94.69-42.4-94.69-94.7s42.39-94.7 94.69-94.7c52.31 0 94.7 42.4 94.7 94.7 0 10.41-1.68 20.43-4.79 29.8M158.244 51.332l-41.798 99.596" style="stroke-linecap: round; stroke-linejoin: round; stroke-miterlimit: 10;" fill="none" stroke="#000000" stroke-width="15px" stroke-linecap="round" stroke-linejoin="round" stroke-miterlimit="10" data-original="#000000"></path><ellipse cx="108.444" cy="68.151" rx="13.776" ry="16.008" style="stroke-linecap: round; stroke-linejoin: round; stroke-miterlimit: 10;" fill="none" stroke="#000000" stroke-width="15px" stroke-linecap="round" stroke-linejoin="round" stroke-miterlimit="10" data-original="#000000"></ellipse><ellipse cx="164.895" cy="136.247" rx="13.776" ry="16.008" style="stroke-linecap: round; stroke-linejoin: round; stroke-miterlimit: 10;" fill="none" stroke="#000000" stroke-width="15px" stroke-linecap="round" stroke-linejoin="round" stroke-miterlimit="10" data-original="#000000"></ellipse><circle cx="188.244" cy="346.914" r="15" style="stroke-linecap: round; stroke-linejoin: round; stroke-miterlimit: 10;" fill="none" stroke="#000000" stroke-width="15px" stroke-linecap="round" stroke-linejoin="round" stroke-miterlimit="10" data-original="#000000"></circle><circle cx="245.323" cy="416.451" r="18" style="stroke-linecap: round; stroke-linejoin: round; stroke-miterlimit: 10;" fill="none" stroke="#000000" stroke-width="15px" stroke-linecap="round" stroke-linejoin="round" stroke-miterlimit="10" data-original="#000000"></circle><circle cx="323.768" cy="325.261" r="18" style="stroke-linecap: round; stroke-linejoin: round; stroke-miterlimit: 10;" fill="none" stroke="#000000" stroke-width="15px" stroke-linecap="round" stroke-linejoin="round" stroke-miterlimit="10" data-original="#000000"></circle><path d="M303.642 385.798h0M164.895 294.43h0M252.505 307.261h0M263.323 357.255h0M185.96 398.451h0M346.336 371.17h0" style="stroke-linecap: round; stroke-linejoin: round; stroke-miterlimit: 10;" fill="none" stroke="#000000" stroke-width="15px" stroke-linecap="round" stroke-linejoin="round" stroke-miterlimit="10" data-original="#000000"></path></g></svg>