<?xml version="1.0" encoding="utf-8"?>
<!-- Generator: Adobe Illustrator 27.5.0, SVG Export Plug-In . SVG Version: 6.00 Build 0)  -->
<svg version="1.1" xmlns="http://www.w3.org/2000/svg" xmlns:xlink="http://www.w3.org/1999/xlink" x="0px" y="0px"
	 viewBox="0 0 750 500" style="enable-background:new 0 0 750 500;" xml:space="preserve">
<g id="Stars">
	<g>
		<g>
			<polygon style="fill:#EC644E;" points="169.287,93.335 170.475,96.99 174.318,96.99 171.209,99.248 172.396,102.903 
				169.287,100.645 166.178,102.903 167.366,99.248 164.257,96.99 168.1,96.99 			"/>
			<polygon style="fill:#EC644E;" points="387.022,88.551 388.21,92.206 392.053,92.206 388.944,94.464 390.131,98.119 
				387.022,95.86 383.913,98.119 385.101,94.464 381.992,92.206 385.835,92.206 			"/>
			<polygon style="fill:#EC644E;" points="603.663,83.766 604.85,87.421 608.693,87.421 605.584,89.68 606.772,93.335 
				603.663,91.076 600.554,93.335 601.741,89.68 598.632,87.421 602.475,87.421 			"/>
			<polygon style="fill:#EC644E;" points="63.576,177.066 64.763,180.721 68.606,180.721 65.497,182.98 66.685,186.635 
				63.576,184.376 60.467,186.635 61.654,182.98 58.545,180.721 62.388,180.721 			"/>
			<polygon style="fill:#EC644E;" points="672.188,194.932 673.376,198.587 677.219,198.587 674.11,200.846 675.297,204.501 
				672.188,202.242 669.079,204.501 670.267,200.846 667.158,198.587 671.001,198.587 			"/>
			<polygon style="fill:#EC644E;" points="335.143,144.678 335.877,146.936 338.252,146.936 336.331,148.332 337.065,150.591 
				335.143,149.195 333.222,150.591 333.956,148.332 332.034,146.936 334.409,146.936 			"/>
			<polygon style="fill:#EC644E;" points="236.169,75.815 236.902,78.074 239.278,78.074 237.356,79.47 238.09,81.729 
				236.169,80.333 234.247,81.729 234.981,79.47 233.06,78.074 235.435,78.074 			"/>
			<polygon style="fill:#EC644E;" points="47.802,147.557 48.535,149.816 50.911,149.816 48.989,151.212 49.723,153.471 
				47.802,152.075 45.88,153.471 46.614,151.212 44.693,149.816 47.068,149.816 			"/>
			<polygon style="fill:#EC644E;" points="498.273,75.815 499.007,78.074 501.382,78.074 499.46,79.47 500.194,81.729 
				498.273,80.333 496.351,81.729 497.085,79.47 495.164,78.074 497.539,78.074 			"/>
			<polygon style="fill:#EC644E;" points="307.302,154.374 308.036,156.633 310.411,156.633 308.49,158.029 309.224,160.288 
				307.302,158.892 305.381,160.288 306.115,158.029 304.193,156.633 306.568,156.633 			"/>
			<polygon style="fill:#EC644E;" points="675.297,154.374 676.031,156.633 678.406,156.633 676.485,158.029 677.219,160.288 
				675.297,158.892 673.376,160.288 674.11,158.029 672.188,156.633 674.563,156.633 			"/>
			<polygon style="fill:#EC644E;" points="435.707,133.723 436.441,135.982 438.816,135.982 436.894,137.378 437.628,139.637 
				435.707,138.24 433.785,139.637 434.519,137.378 432.598,135.982 434.973,135.982 			"/>
			<polygon style="fill:#EC644E;" points="366.757,72.858 367.491,75.117 369.866,75.117 367.944,76.513 368.678,78.772 
				366.757,77.376 364.835,78.772 365.569,76.513 363.648,75.117 366.023,75.117 			"/>
			<polygon style="fill:#EC644E;" points="143.085,115.753 143.819,118.012 146.194,118.012 144.273,119.408 145.007,121.667 
				143.085,120.271 141.164,121.667 141.898,119.408 139.976,118.012 142.352,118.012 			"/>
			<polygon style="fill:#EC644E;" points="627.521,61.448 628.255,63.707 630.63,63.707 628.709,65.103 629.443,67.362 
				627.521,65.966 625.6,67.362 626.334,65.103 624.412,63.707 626.787,63.707 			"/>
			<polygon style="fill:#EC644E;" points="595.038,193.803 595.772,196.062 598.147,196.062 596.225,197.458 596.959,199.717 
				595.038,198.32 593.116,199.717 593.85,197.458 591.929,196.062 594.304,196.062 			"/>
		</g>
	</g>
</g>
<g id="Moon">
	<path style="fill:#EC644E;" d="M110.002,75.815c0,12.823-10.394,23.217-23.217,23.217c-12.815,0-23.209-10.394-23.209-23.217
		c0-12.823,10.394-23.218,23.209-23.218c0.652,0,1.305,0.026,1.94,0.086c-9.896,0.91-17.647,9.236-17.647,19.381
		c0,10.746,8.712,19.458,19.458,19.458c10.145,0,18.471-7.751,19.381-17.647C109.976,74.511,110.002,75.163,110.002,75.815z"/>
</g>
<g id="Sun">
	<g>
		<g>
			<path style="fill:#EC644E;" d="M423.418,375.189c0.182-1.712,0.281-3.449,0.281-5.209c0-26.895-21.803-48.698-48.698-48.698
				c-26.895,0-48.698,21.803-48.698,48.698c0,1.76,0.099,3.497,0.281,5.209H423.418z"/>
			<path style="fill:#FFFFFF;" d="M332.191,375.189c-0.182-1.714-0.284-3.451-0.284-5.214c0-25.95,20.3-47.16,45.89-48.61
				c-0.93-0.05-1.86-0.08-2.8-0.08c-26.89,0-48.7,21.8-48.7,48.69c0,1.762,0.099,3.5,0.281,5.214H332.191z"/>
			<path style="fill:none;stroke:#EC644E;stroke-width:2.5;stroke-linecap:round;stroke-linejoin:round;stroke-miterlimit:10;" d="
				M550.615,375.189c0.051-1.731,0.083-3.466,0.083-5.209c0-96.88-78.817-175.698-175.698-175.698S199.302,273.1,199.302,369.98
				c0,1.743,0.033,3.478,0.083,5.209H550.615z"/>
			<path style="fill:none;stroke:#EC644E;stroke-width:2.5;stroke-linecap:round;stroke-linejoin:round;stroke-miterlimit:10;" d="
				M481.57,375.189c0.083-1.726,0.129-3.462,0.129-5.209c0-58.834-47.864-106.698-106.698-106.698S268.302,311.146,268.302,369.98
				c0,1.746,0.045,3.483,0.129,5.209H481.57z"/>
			<path style="fill:none;stroke:#EC644E;stroke-width:2.5;stroke-linecap:round;stroke-linejoin:round;stroke-miterlimit:10;" d="
				M442.478,375.189c0.132-1.721,0.22-3.454,0.22-5.209c0-37.329-30.369-67.698-67.698-67.698
				c-37.329,0-67.698,30.369-67.698,67.698c0,1.754,0.089,3.488,0.22,5.209H442.478z"/>
			<path style="fill:none;stroke:#263238;stroke-width:2.5;stroke-linecap:round;stroke-linejoin:round;stroke-miterlimit:10;" d="
				M423.418,375.189c0.182-1.712,0.281-3.449,0.281-5.209c0-26.895-21.803-48.698-48.698-48.698
				c-26.895,0-48.698,21.803-48.698,48.698c0,1.76,0.099,3.497,0.281,5.209H423.418z"/>
		</g>
	</g>
</g>
<g id="Clouds_2">
	<g>
		
			<path style="fill:#FFFFFF;stroke:#9ABAE3;stroke-width:2.5;stroke-linecap:round;stroke-linejoin:round;stroke-miterlimit:10;" d="
			M481.833,161.283c0,0,12.838-11.697,35.66-8.273c0,0,6.276-21.682,29.669-13.408c0,0,9.129-22.252,37.943-20.826
			c28.814,1.426,34.234,28.528,34.234,28.528s22.252-4.279,37.087,13.979H481.833z"/>
		<g>
			<path style="fill:#9ABAE3;" d="M588.315,149.588c0,0-20.606-7.529-37.507,0.926c0,0,4.399-9.956,18.754-9.956
				C583.916,140.558,588.315,149.588,588.315,149.588z"/>
			<path style="fill:#9ABAE3;" d="M556.712,144.987c0,0-12.211-4.462-22.227,0.549c0,0,2.607-5.9,11.113-5.9
				C554.105,139.637,556.712,144.987,556.712,144.987z"/>
		</g>
	</g>
	<g>
		
			<path style="fill:#FFFFFF;stroke:#9ABAE3;stroke-width:2.5;stroke-linecap:round;stroke-linejoin:round;stroke-miterlimit:10;" d="
			M338.252,189.803H99.229c0,0,9.551-12.98,27.674-12c0,0-0.49-10.531,7.102-13.714c7.592-3.184,14.449,2.204,14.449,2.204
			s-0.98-26.204,26.694-32.572c27.674-6.367,39.674,21.062,39.674,21.062s25.96-14.204,38.449,13.714c0,0,16.653-9.061,27.674,8.816
			C280.945,177.313,311.313,167.762,338.252,189.803z"/>
		<g>
			<path style="fill:#9ABAE3;" d="M229.721,161.302c0,0-16.371-5.436-29.798,0.669c0,0,3.495-7.188,14.899-7.188
				S229.721,161.302,229.721,161.302z"/>
			<path style="fill:#9ABAE3;" d="M265.269,173.051c0,0-16.371-5.436-29.798,0.669c0,0,3.495-7.188,14.899-7.188
				C261.774,166.532,265.269,173.051,265.269,173.051z"/>
			<path style="fill:#9ABAE3;" d="M193.594,176.85c0,0-19.79-7.231-36.023,0.889c0,0,4.225-9.562,18.011-9.562
				C189.369,168.178,193.594,176.85,193.594,176.85z"/>
			<path style="fill:#9ABAE3;" d="M163.242,172.432c0,0-11.727-4.285-21.347,0.527c0,0,2.504-5.666,10.673-5.666
				C160.738,167.293,163.242,172.432,163.242,172.432z"/>
		</g>
	</g>
</g>
<g id="Clouds_1">
	<g>
		<g>
			<path style="fill:#EC644E;" d="M322.689,244.235h220.152c0,0-24.819-14.823-54.693-7.411c0,0-3.677-18.729-23.555-10.916
				c0,0-10.686-28.611-36.998-14.248c0,0-14.478-23.785-38.607-15.397c-22.459,7.807-20.682,28.955-20.682,28.955
				s-18.959-5.171-23.9,12.18C344.405,237.398,334.524,234.87,322.689,244.235z"/>
			<path style="fill:#FFFFFF;" d="M542.837,244.232H322.688c3.524-2.788,6.873-4.519,9.837-5.577h197.199
				C537.882,241.268,542.837,244.232,542.837,244.232z"/>
			<path style="fill:none;stroke:#263238;stroke-width:2.5;stroke-linecap:round;stroke-linejoin:round;stroke-miterlimit:10;" d="
				M322.689,244.235h220.152c0,0-24.819-14.823-54.693-7.411c0,0-3.677-18.729-23.555-10.916c0,0-10.686-28.611-36.998-14.248
				c0,0-14.478-23.785-38.607-15.397c-22.459,7.807-20.682,28.955-20.682,28.955s-18.959-5.171-23.9,12.18
				C344.405,237.398,334.524,234.87,322.689,244.235z"/>
			<g>
				<path style="fill:#FFFFFF;" d="M465.369,231.647c0,0-16.352-5.429-29.763,0.668c0,0,3.491-7.179,14.882-7.179
					S465.369,231.647,465.369,231.647z"/>
				<path style="fill:#FFFFFF;" d="M419.164,223.989c0,0-19.767-7.222-35.98,0.888c0,0,4.22-9.55,17.99-9.55
					C414.944,215.327,419.164,223.989,419.164,223.989z"/>
				<path style="fill:#FFFFFF;" d="M393.845,228.199c0,0-11.714-4.28-21.322,0.526c0,0,2.501-5.659,10.661-5.659
					C391.344,223.066,393.845,228.199,393.845,228.199z"/>
			</g>
		</g>
		<g>
			<path style="fill:#EC644E;" d="M403.633,286.59h304.135c0,0-28.059-29.258-56.99-12.864c0,0-9.379-30.366-44.296-19.06
				c0,0-8.313-14.649-22.613-3.002c0,0-9.902-28.071-37.577-26.927c-24.968,1.032-32.256,19.287-32.256,19.287
				s-29.264-9.923-44.893,18.317c0,0-17.625-3.352-25.606,12.942C443.538,275.284,408.953,279.274,403.633,286.59z"/>
			<path style="fill:#FFFFFF;" d="M707.766,286.588h-304.13c1.91-2.63,7.6-4.83,14.11-6.56h282.25
				C704.875,283.578,707.766,286.588,707.766,286.588z"/>
			<path style="fill:none;stroke:#263238;stroke-width:2.5;stroke-linecap:round;stroke-linejoin:round;stroke-miterlimit:10;" d="
				M403.633,286.59h304.135c0,0-28.059-29.258-56.99-12.864c0,0-9.379-30.366-44.296-19.06c0,0-8.313-14.649-22.613-3.002
				c0,0-9.902-28.071-37.577-26.927c-24.968,1.032-32.256,19.287-32.256,19.287s-29.264-9.923-44.893,18.317
				c0,0-17.625-3.352-25.606,12.942C443.538,275.284,408.953,279.274,403.633,286.59z"/>
			<g>
				<path style="fill:#FFFFFF;" d="M622.38,266.051c0,0-17.046-5.66-31.027,0.696c0,0,3.639-7.484,15.513-7.484
					S622.38,266.051,622.38,266.051z"/>
				<path style="fill:#FFFFFF;" d="M582.848,274.593c0,0-17.045-5.66-31.027,0.696c0,0,3.639-7.484,15.513-7.484
					S582.848,274.593,582.848,274.593z"/>
				<g>
					<path style="fill:#FFFFFF;" d="M534.093,263.315c0,0-20.606-7.529-37.507,0.926c0,0,4.399-9.956,18.754-9.956
						C529.694,254.285,534.093,263.315,534.093,263.315z"/>
					<path style="fill:#FFFFFF;" d="M502.49,258.714c0,0-12.211-4.461-22.227,0.549c0,0,2.607-5.9,11.113-5.9
						C499.883,253.363,502.49,258.714,502.49,258.714z"/>
				</g>
			</g>
		</g>
		<g>
			<path style="fill:#EC644E;" d="M42.234,296.876h290.451c0,0-11.451-12.167-32.564-7.515c0,0-24.333-31.848-55.108-13.598
				c0,0-12.882-13.24-27.912-2.147c0,0-2.409-25.855-24.333-30.033c-27.673-5.274-37.216,16.435-37.216,16.435
				s-28.27-15.029-39.721,14.672c0,0-21.113-5.487-24.811,11.809C91.02,286.499,74.439,276.598,42.234,296.876z"/>
			<path style="fill:#FFFFFF;" d="M332.682,296.875H42.232c3.59-2.26,6.98-4.14,10.18-5.71h271.42
				C329.652,293.655,332.682,296.875,332.682,296.875z"/>
			<path style="fill:none;stroke:#263238;stroke-width:2.5;stroke-linecap:round;stroke-linejoin:round;stroke-miterlimit:10;" d="
				M42.234,296.876h290.451c0,0-11.451-12.167-32.564-7.515c0,0-24.333-31.848-55.108-13.598c0,0-12.882-13.24-27.912-2.147
				c0,0-2.409-25.855-24.333-30.033c-27.673-5.274-37.216,16.435-37.216,16.435s-28.27-15.029-39.721,14.672
				c0,0-21.113-5.487-24.811,11.809C91.02,286.499,74.439,276.598,42.234,296.876z"/>
			<g>
				<path style="fill:#FFFFFF;" d="M153.728,278.616c0,0-17.045-5.66-31.027,0.696c0,0,3.639-7.484,15.513-7.484
					C150.089,271.828,153.728,278.616,153.728,278.616z"/>
				<g>
					<path style="fill:#FFFFFF;" d="M262.771,287.359c0,0-20.606-7.529-37.507,0.926c0,0,4.399-9.956,18.754-9.956
						C258.372,278.33,262.771,287.359,262.771,287.359z"/>
					<path style="fill:#FFFFFF;" d="M228.699,284.663c0,0-12.211-4.462-22.226,0.549c0,0,2.607-5.9,11.113-5.9
						C226.092,279.312,228.699,284.663,228.699,284.663z"/>
				</g>
			</g>
		</g>
	</g>
</g>
<g id="Trees">
	<g>
		<g>
			<g>
				
					<path style="fill:#263238;stroke:#263238;stroke-width:2.5;stroke-linecap:round;stroke-linejoin:round;stroke-miterlimit:10;" d="
					M62.189,375.213H38.808c-0.863,0-1.517-0.781-1.365-1.631l12.934-72.302c0.024-0.135,0.218-0.135,0.242,0l12.934,72.302
					C63.706,374.432,63.052,375.213,62.189,375.213z"/>
				
					<line style="fill:none;stroke:#FFFFFF;stroke-width:2.5;stroke-linecap:round;stroke-linejoin:round;stroke-miterlimit:10;" x1="50.499" y1="339.959" x2="50.499" y2="375.213"/>
				
					<line style="fill:none;stroke:#FFFFFF;stroke-width:2.5;stroke-linecap:round;stroke-linejoin:round;stroke-miterlimit:10;" x1="45.268" y1="352.796" x2="50.335" y2="357.862"/>
				
					<line style="fill:none;stroke:#FFFFFF;stroke-width:2.5;stroke-linecap:round;stroke-linejoin:round;stroke-miterlimit:10;" x1="57.354" y1="361.955" x2="50.499" y2="368.81"/>
				
					<line style="fill:none;stroke:#FFFFFF;stroke-width:2.5;stroke-linecap:round;stroke-linejoin:round;stroke-miterlimit:10;" x1="53.926" y1="345.089" x2="50.499" y2="348.517"/>
			</g>
		</g>
		<g>
			<g>
				
					<path style="fill:#263238;stroke:#263238;stroke-width:2.5;stroke-linecap:round;stroke-linejoin:round;stroke-miterlimit:10;" d="
					M700.064,375.213h-23.38c-0.863,0-1.517-0.781-1.365-1.631l12.934-72.302c0.024-0.135,0.218-0.135,0.242,0l12.934,72.302
					C701.581,374.432,700.928,375.213,700.064,375.213z"/>
				
					<line style="fill:none;stroke:#FFFFFF;stroke-width:2.5;stroke-linecap:round;stroke-linejoin:round;stroke-miterlimit:10;" x1="688.374" y1="339.959" x2="688.374" y2="375.213"/>
				
					<line style="fill:none;stroke:#FFFFFF;stroke-width:2.5;stroke-linecap:round;stroke-linejoin:round;stroke-miterlimit:10;" x1="683.144" y1="352.796" x2="688.211" y2="357.862"/>
				
					<line style="fill:none;stroke:#FFFFFF;stroke-width:2.5;stroke-linecap:round;stroke-linejoin:round;stroke-miterlimit:10;" x1="695.23" y1="361.955" x2="688.374" y2="368.81"/>
				
					<line style="fill:none;stroke:#FFFFFF;stroke-width:2.5;stroke-linecap:round;stroke-linejoin:round;stroke-miterlimit:10;" x1="691.802" y1="345.089" x2="688.374" y2="348.517"/>
			</g>
		</g>
		<g>
			<g>
				
					<path style="fill:#263238;stroke:#263238;stroke-width:2.5;stroke-linecap:round;stroke-linejoin:round;stroke-miterlimit:10;" d="
					M664.624,375.213h-16.24c-0.6,0-1.053-0.542-0.948-1.133l9.068-50.69l9.068,50.689
					C665.678,374.671,665.224,375.213,664.624,375.213z"/>
			</g>
		</g>
		<g>
			<g>
				
					<path style="fill:#263238;stroke:#263238;stroke-width:2.5;stroke-linecap:round;stroke-linejoin:round;stroke-miterlimit:10;" d="
					M79.694,375.213h-14.07c-0.52,0-0.913-0.47-0.821-0.981l7.856-43.917l7.856,43.917
					C80.607,374.743,80.213,375.213,79.694,375.213z"/>
				<path style="fill:none;stroke:#FFFFFF;stroke-width:2.5;stroke-linecap:round;stroke-linejoin:round;stroke-miterlimit:10;" d="
					M72.545,363.161"/>
				<path style="fill:none;stroke:#FFFFFF;stroke-width:2.5;stroke-linecap:round;stroke-linejoin:round;stroke-miterlimit:10;" d="
					M69.026,359.642"/>
			</g>
		</g>
		<g>
			<g>
				
					<path style="fill:#263238;stroke:#263238;stroke-width:2.5;stroke-linecap:round;stroke-linejoin:round;stroke-miterlimit:10;" d="
					M139.013,375.213h-16.24c-0.6,0-1.054-0.542-0.948-1.133l9.068-50.69l9.068,50.69
					C140.067,374.671,139.613,375.213,139.013,375.213z"/>
			</g>
		</g>
		<g>
			<g>
				
					<path style="fill:#263238;stroke:#263238;stroke-width:2.5;stroke-linecap:round;stroke-linejoin:round;stroke-miterlimit:10;" d="
					M578.975,375.213h-11.048c-0.408,0-0.717-0.369-0.645-0.77l6.169-34.483l6.169,34.483
					C579.692,374.844,579.383,375.213,578.975,375.213z"/>
			</g>
		</g>
	</g>
</g>
<g id="Birds">
	<g>
		<path style="fill:none;stroke:#263238;stroke-width:2.5;stroke-linecap:round;stroke-linejoin:round;stroke-miterlimit:10;" d="
			M537.96,359.732L537.96,359.732c-3.387-2.741-8.229-2.742-11.617-0.003l-0.003,0.003l-0.012-0.01
			c-3.386-2.736-8.223-2.736-11.609,0l-0.012,0.01"/>
		<path style="fill:none;stroke:#263238;stroke-width:2.5;stroke-linecap:round;stroke-linejoin:round;stroke-miterlimit:10;" d="
			M235.293,359.302L235.293,359.302c-3.387-2.741-8.229-2.742-11.617-0.002l-0.003,0.002l-0.012-0.01
			c-3.386-2.737-8.223-2.737-11.609,0l-0.012,0.01"/>
		<path style="fill:none;stroke:#263238;stroke-width:2.5;stroke-linecap:round;stroke-linejoin:round;stroke-miterlimit:10;" d="
			M267.27,338.876L267.27,338.876c-3.387-2.741-8.229-2.742-11.617-0.002l-0.003,0.002l-0.012-0.01
			c-3.386-2.737-8.223-2.737-11.609,0l-0.012,0.01"/>
	</g>
</g>
<g id="Water">
	<g>
		<g>
			<path style="fill:#9ABAE3;" d="M282.533,402.725c0,0,7.777-3.414,15.555-2.845c7.777,0.569,10.433,3.984,22.763,3.604
				c12.33-0.379,19.917-10.433,19.917-10.433s-10.623,5.341-21.435,5.231C308.52,398.173,299.036,390.585,282.533,402.725z"/>
			<path style="fill:#9ABAE3;" d="M520.979,431.35c0,0,7.777-3.414,15.555-2.845c7.777,0.569,10.433,3.983,22.763,3.604
				c12.33-0.379,19.917-10.433,19.917-10.433s-10.623,5.341-21.435,5.231C546.966,426.798,537.482,419.21,520.979,431.35z"/>
			<path style="fill:#9ABAE3;" d="M272.954,441.349c0,0-8.048,2.715-15.745,1.462c-7.697-1.253-10.041-4.889-22.356-5.599
				c-12.315-0.71-20.76,8.635-20.76,8.635s11.052-4.382,21.813-3.319C246.666,443.59,255.444,451.985,272.954,441.349z"/>
			<path style="fill:#9ABAE3;" d="M482.003,431.083c0,0-8.048,2.715-15.745,1.462c-7.697-1.253-10.041-4.889-22.356-5.599
				c-12.315-0.71-20.76,8.635-20.76,8.635s11.052-4.382,21.813-3.319C455.715,433.324,464.493,441.719,482.003,431.083z"/>
			<path style="fill:#9ABAE3;" d="M525.097,403.856c0,0-7.335,2.474-14.351,1.332c-7.015-1.142-9.151-4.456-20.376-5.103
				c-11.224-0.647-18.922,7.87-18.922,7.87s10.074-3.994,19.881-3.025C501.137,405.899,509.137,413.551,525.097,403.856z"/>
			<path style="fill:#9ABAE3;" d="M420.379,413.851c0,0,8.048,2.715,15.745,1.462c7.697-1.253,10.041-4.889,22.356-5.599
				c12.315-0.71,20.76,8.635,20.76,8.635s-11.053-4.382-21.813-3.319C446.667,416.092,437.889,424.487,420.379,413.851z"/>
			<path style="fill:#9ABAE3;" d="M267.549,437.356c0,0,6.902,2.328,13.502,1.253c6.6-1.075,8.61-4.192,19.171-4.801
				s17.802,7.404,17.802,7.404s-9.478-3.758-18.705-2.846C290.092,439.278,282.564,446.477,267.549,437.356z"/>
			<path style="fill:#9ABAE3;" d="M421.322,448.913c0,0,8.507-2.721,16.714-1.529c8.207,1.193,10.766,4.763,23.874,5.395
				c13.107,0.632,21.914-8.628,21.914-8.628s-11.671,4.382-23.132,3.393C449.231,446.556,439.743,438.329,421.322,448.913z"/>
			<path style="fill:#9ABAE3;" d="M431.173,469.719c0,0-5.979,2.445-11.803,1.706c-5.824-0.739-7.688-3.566-16.97-3.714
				c-9.283-0.148-15.378,7.611-15.378,7.611s8.193-3.881,16.316-3.398C411.461,472.408,418.296,478.82,431.173,469.719z"/>
			<path style="fill:#9ABAE3;" d="M506.637,438.3c0,0-5.62,2.298-11.094,1.603c-5.474-0.695-7.226-3.352-15.951-3.491
				c-8.725-0.139-14.454,7.154-14.454,7.154s7.701-3.647,15.336-3.194C488.109,440.827,494.533,446.854,506.637,438.3z"/>
			<path style="fill:#9ABAE3;" d="M451.038,437.423c0,0-6.087,2.162-11.87,1.15c-5.783-1.012-7.512-3.923-16.778-4.506
				c-9.266-0.583-15.718,6.882-15.718,6.882s8.366-3.492,16.457-2.628C431.221,439.185,437.747,445.91,451.038,437.423z"/>
			<path style="fill:#9ABAE3;" d="M506.637,412.63c0,0,5.979,2.445,11.803,1.706c5.824-0.739,7.688-3.566,16.97-3.714
				c9.283-0.148,15.378,7.611,15.378,7.611s-8.193-3.881-16.316-3.398C526.349,415.319,519.514,421.731,506.637,412.63z"/>
			<path style="fill:#9ABAE3;" d="M192.018,407.879c0,0,5.979,2.445,11.803,1.706c5.824-0.739,7.688-3.566,16.971-3.714
				c9.283-0.148,15.378,7.611,15.378,7.611s-8.193-3.881-16.316-3.398C211.729,410.567,204.895,416.979,192.018,407.879z"/>
			<path style="fill:#9ABAE3;" d="M228.321,415.388c0,0,5.979,2.445,11.803,1.705c5.824-0.739,7.687-3.566,16.971-3.714
				c9.283-0.148,15.378,7.611,15.378,7.611s-8.193-3.881-16.316-3.398C248.033,418.076,241.199,424.488,228.321,415.388z"/>
			<path style="fill:#9ABAE3;" d="M388.049,452.599c0,0-6.034,2.306-11.839,1.432c-5.805-0.874-7.603-3.742-16.88-4.104
				c-9.277-0.362-15.549,7.254-15.549,7.254s8.28-3.69,16.39-3.02C368.28,454.832,374.965,461.4,388.049,452.599z"/>
			<path style="fill:#9ABAE3;" d="M513.588,417.382c0,0-5.979,2.445-11.803,1.706c-5.824-0.739-7.688-3.566-16.97-3.714
				s-15.378,7.611-15.378,7.611s8.193-3.881,16.316-3.398C493.876,420.071,500.71,426.483,513.588,417.382z"/>
			<path style="fill:#9ABAE3;" d="M620.708,406.915c0,0-5.979,2.445-11.803,1.706c-5.824-0.739-7.687-3.566-16.97-3.714
				c-9.283-0.148-15.378,7.611-15.378,7.611s8.193-3.881,16.316-3.398C600.996,409.604,607.83,416.016,620.708,406.915z"/>
			<path style="fill:#9ABAE3;" d="M257.27,428.127c0,0,14.198,3.225,26,0.759c11.803-2.466,29.764-17.072,61.067-5.88
				c0,0-11.461-2.276-27.54,2.276C300.718,429.834,282.929,442.923,257.27,428.127z"/>
			<path style="fill:#9ABAE3;" d="M392.173,407.574c0,0,14.198,3.225,26,0.759c11.803-2.466,29.764-17.072,61.067-5.88
				c0,0-11.461-2.276-27.54,2.276C435.621,409.281,417.832,422.37,392.173,407.574z"/>
			<path style="fill:#9ABAE3;" d="M129.292,431.328c0,0,12.365-4.633,23.218-3.37c10.854,1.263,28.58,13.971,55.387-0.3
				c0,0-10.018,3.415-24.937,0.509C168.042,425.26,150.638,414.043,129.292,431.328z"/>
			<path style="fill:#9ABAE3;" d="M333.956,431.954c0,0,12.365-4.633,23.218-3.37c10.853,1.263,28.58,13.971,55.387-0.3
				c0,0-10.018,3.415-24.937,0.509C372.707,425.887,355.302,414.67,333.956,431.954z"/>
		</g>
		<path style="fill:none;stroke:#9ABAE3;stroke-width:2.5;stroke-linecap:round;stroke-linejoin:round;stroke-miterlimit:10;" d="
			M326.583,375.189c2.6,24.445,23.283,43.489,48.417,43.489c25.135,0,45.818-19.044,48.418-43.489H326.583z"/>
	</g>
</g>
<g id="Floor">
	
		<line style="fill:none;stroke:#263238;stroke-width:2.5;stroke-linecap:round;stroke-linejoin:round;stroke-miterlimit:10;" x1="4.425" y1="375.189" x2="703.219" y2="375.189"/>
</g>
</svg>
