<svg xmlns="http://www.w3.org/2000/svg" version="1.1" xmlns:xlink="http://www.w3.org/1999/xlink" width="512" height="512" x="0" y="0" viewBox="0 0 512 512" style="enable-background:new 0 0 512 512" xml:space="preserve" class=""><g><path fill="#EAF6FF" d="M335.684 47.81c0-8.802 7.135-15.937 15.937-15.937h15.937c8.802 0 15.937-7.135 15.937-15.937C383.495 7.135 376.359 0 367.558 0H208.19c-8.802 0-15.937 7.135-15.937 15.937s7.135 15.937 15.937 15.937h15.937c8.802 0 15.937 7.135 15.937 15.937s-7.135 15.937-15.937 15.937h-47.81c-8.802 0-15.937 7.135-15.937 15.937s7.135 15.937 15.937 15.937h223.115c8.802 0 15.937-7.135 15.937-15.937s-7.135-15.937-15.937-15.937h-47.81c-8.803-.001-15.938-7.136-15.938-15.938z" opacity="1" data-original="#eaf6ff" class=""></path><path fill="#D8ECFE" d="M208.19 31.874h15.937c8.802 0 15.937 7.135 15.937 15.937s-7.135 15.937-15.937 15.937h30.784c8.802 0 15.937-7.135 15.937-15.937s-7.135-15.937-15.937-15.937h-15.937c-8.802 0-15.937-7.135-15.937-15.937C223.036 7.135 230.172 0 238.973 0H208.19c-8.802 0-15.937 7.135-15.937 15.937s7.135 15.937 15.937 15.937zM191.163 79.684c0-8.802 7.135-15.937 15.937-15.937h-30.784c-8.802 0-15.937 7.135-15.937 15.937s7.135 15.937 15.937 15.937H207.1c-8.802 0-15.937-7.135-15.937-15.937z" opacity="1" data-original="#d8ecfe" class=""></path><path fill="#EAF6FF" d="M176.316 304.822c0-8.802 7.135-15.937 15.937-15.937h15.937c8.802 0 15.937-7.135 15.937-15.937s-7.135-15.937-15.937-15.937H48.821c-8.802 0-15.937 7.135-15.937 15.937s7.135 15.937 15.937 15.937h15.937c8.802 0 15.937 7.135 15.937 15.937s-7.135 15.937-15.937 15.937h-47.81c-8.802 0-15.937 7.135-15.937 15.937s7.135 15.937 15.937 15.937h223.115c8.802 0 15.937-7.135 15.937-15.937s-7.135-15.937-15.937-15.937h-47.81c-8.802 0-15.937-7.135-15.937-15.937z" opacity="1" data-original="#eaf6ff" class=""></path><path fill="#D8ECFE" d="M48.821 288.885h15.937c8.802 0 15.937 7.135 15.937 15.937s-7.135 15.937-15.937 15.937h30.784c8.802 0 15.937-7.135 15.937-15.937s-7.135-15.937-15.937-15.937H79.605c-8.802 0-15.937-7.135-15.937-15.937s7.135-15.937 15.937-15.937H48.821c-8.802 0-15.937 7.135-15.937 15.937.001 8.802 7.136 15.937 15.937 15.937zM31.795 336.695c0-8.802 7.135-15.937 15.937-15.937H16.948c-8.802 0-15.937 7.135-15.937 15.937s7.135 15.937 15.937 15.937h30.784c-8.802 0-15.937-7.135-15.937-15.937z" opacity="1" data-original="#d8ecfe" class=""></path><path fill="#EAF6FF" d="M256 464.19c0-8.802 7.135-15.937 15.937-15.937s15.937-7.135 15.937-15.937-7.135-15.937-15.937-15.937h-95.621c-8.802 0-15.937 7.135-15.937 15.937s7.135 15.937 15.937 15.937 15.937 7.135 15.937 15.937-7.135 15.937-15.937 15.937h-63.747c-8.802 0-15.937 7.135-15.937 15.937s7.135 15.937 15.937 15.937h286.863c8.802 0 15.937-7.135 15.937-15.937s-7.135-15.937-15.937-15.937H271.937c-8.802-.001-15.937-7.136-15.937-15.937z" opacity="1" data-original="#eaf6ff" class=""></path><path fill="#D8ECFE" d="M176.316 448.253c8.802 0 15.937 7.135 15.937 15.937s-7.135 15.937-15.937 15.937H207.1c8.802 0 15.937-7.135 15.937-15.937s-7.135-15.937-15.937-15.937-15.937-7.135-15.937-15.937 7.135-15.937 15.937-15.937h-30.784c-8.802 0-15.937 7.135-15.937 15.937 0 8.801 7.135 15.937 15.937 15.937zM127.415 496.063c0-8.802 7.135-15.937 15.937-15.937h-30.784c-8.802 0-15.937 7.135-15.937 15.937 0 8.801 7.135 15.937 15.937 15.937h30.784c-8.801 0-15.937-7.135-15.937-15.937z" opacity="1" data-original="#d8ecfe" class=""></path><path fill="#EAF6FF" d="M399.431 177.327c0-8.802 7.135-15.937 15.937-15.937h15.937c8.802 0 15.937-7.135 15.937-15.937s-7.135-15.937-15.937-15.937H271.937c-8.802 0-15.937 7.135-15.937 15.937s7.135 15.937 15.937 15.937h15.937c8.802 0 15.937 7.135 15.937 15.937s-7.135 15.937-15.937 15.937H208.19c-8.802 0-15.937 7.135-15.937 15.937s7.135 15.937 15.937 15.937h286.863c8.802 0 15.937-7.135 15.937-15.937s-7.135-15.937-15.937-15.937h-79.684c-8.803 0-15.938-7.135-15.938-15.937z" opacity="1" data-original="#eaf6ff" class=""></path><path fill="#D8ECFE" d="M223.036 209.201c0-8.802 7.135-15.937 15.937-15.937H208.19c-8.802 0-15.937 7.135-15.937 15.937s7.135 15.937 15.937 15.937h30.784c-8.802 0-15.938-7.135-15.938-15.937zM271.937 161.39h15.937c8.802 0 15.937 7.135 15.937 15.937s-7.135 15.937-15.937 15.937h30.784c8.802 0 15.937-7.135 15.937-15.937s-7.135-15.937-15.937-15.937H302.72c-8.802 0-15.937-7.135-15.937-15.937s7.135-15.937 15.937-15.937h-30.784c-8.802 0-15.937 7.135-15.937 15.937.001 8.802 7.136 15.937 15.938 15.937z" opacity="1" data-original="#d8ecfe" class=""></path><path fill="#EAF6FF" d="M144.442 161.39H48.821c-8.802 0-15.937-7.135-15.937-15.937s7.135-15.937 15.937-15.937h95.621c8.802 0 15.937 7.135 15.937 15.937s-7.135 15.937-15.937 15.937z" opacity="1" data-original="#eaf6ff" class=""></path><path fill="#D8ECFE" d="M63.668 145.454c0-8.802 7.135-15.937 15.937-15.937H48.821c-8.802 0-15.937 7.135-15.937 15.937s7.135 15.937 15.937 15.937h30.784c-8.802-.001-15.937-7.136-15.937-15.937z" opacity="1" data-original="#d8ecfe" class=""></path><path fill="#EAF6FF" d="M463.179 320.759h-95.621c-8.802 0-15.937-7.135-15.937-15.937s7.135-15.937 15.937-15.937h95.621c8.802 0 15.937 7.135 15.937 15.937-.001 8.802-7.136 15.937-15.937 15.937z" opacity="1" data-original="#eaf6ff" class=""></path><path fill="#D8ECFE" d="M382.405 304.822c0-8.802 7.135-15.937 15.937-15.937h-30.784c-8.802 0-15.937 7.135-15.937 15.937s7.135 15.937 15.937 15.937h30.784c-8.802 0-15.937-7.136-15.937-15.937z" opacity="1" data-original="#d8ecfe" class=""></path><path fill="#EAF6FF" d="M399.431 416.38h-31.874c-8.802 0-15.937-7.135-15.937-15.937s7.135-15.937 15.937-15.937h31.874c8.802 0 15.937 7.135 15.937 15.937 0 8.801-7.135 15.937-15.937 15.937z" opacity="1" data-original="#eaf6ff" class=""></path><path fill="#D8ECFE" d="M382.405 400.443c0-8.802 7.135-15.937 15.937-15.937h-30.784c-8.802 0-15.937 7.135-15.937 15.937s7.135 15.937 15.937 15.937h30.784c-8.802 0-15.937-7.136-15.937-15.937z" opacity="1" data-original="#d8ecfe" class=""></path></g></svg>