<svg xmlns="http://www.w3.org/2000/svg" version="1.1" xmlns:xlink="http://www.w3.org/1999/xlink" width="512" height="512" x="0" y="0" viewBox="0 0 512 512" style="enable-background:new 0 0 512 512" xml:space="preserve" class=""><g><circle cx="256" cy="256" r="256" fill="#60B7FF" opacity="1" data-original="#60b7ff"></circle><circle cx="256" cy="256" r="218.208" fill="#D8ECFE" opacity="1" data-original="#d8ecfe"></circle><path fill="#C4E2FF" d="M426.723 120.108c17.129 31.149 26.882 66.927 26.882 104.986 0 120.513-97.695 218.208-218.208 218.208-69.13 0-130.742-32.155-170.723-82.316C101.783 428.47 173.546 474.208 256 474.208c120.513 0 218.208-97.695 218.208-218.208 0-51.383-17.77-98.609-47.485-135.892z" opacity="1" data-original="#c4e2ff"></path><circle cx="256" cy="256" r="88.541" fill="#60B7FF" opacity="1" data-original="#60b7ff"></circle><path fill="#FE646F" d="M369.596 150.05c2.776-4.948-2.699-10.423-7.647-7.647l-118.89 66.714-16.971 16.971-16.971 16.971-66.714 118.89c-2.776 4.948 2.699 10.423 7.647 7.647l118.89-66.714 16.971-16.971 16.971-16.971z" opacity="1" data-original="#fe646f"></path><circle cx="256" cy="256" r="15.601" fill="#D8ECFE" opacity="1" data-original="#d8ecfe"></circle><g fill="#60B7FF"><path d="m277.201 60.144-.076.001a7.726 7.726 0 0 0-7.652 7.8l.243 25.117-20.364-29.489a7.727 7.727 0 0 0-14.085 4.39v49.38a7.726 7.726 0 1 0 15.452 0V92.748l19.306 27.956c2.209 3.192 5.917 4.542 9.451 3.439 3.591-1.122 5.91-4.445 5.91-8.542l-.462-47.805a7.725 7.725 0 0 0-7.723-7.652zM446.274 271.377h-12.929v-9.058h11.405a7.726 7.726 0 1 0 0-15.452h-11.405v-9.057h12.929a7.726 7.726 0 1 0 0-15.452h-20.655a7.725 7.725 0 0 0-7.726 7.726v49.021a7.726 7.726 0 0 0 7.726 7.726h20.655a7.725 7.725 0 0 0 7.726-7.726 7.726 7.726 0 0 0-7.726-7.728zM268.474 412.534c-5.805-2.141-11.228-4.467-13.167-5.313-.545-.526-.593-1.188-.521-1.683.176-1.226 1.216-2.213 2.853-2.706 6.133-1.849 11.967 2.686 12.195 2.867a7.727 7.727 0 0 0 9.893-11.87c-4.486-3.771-15.127-9.233-26.545-5.792-7.411 2.232-12.658 8.098-13.692 15.306-.977 6.801 1.973 13.345 7.698 17.077.341.222.699.418 1.071.584a270.72 270.72 0 0 0 14.866 6.029c2.902 1.07 5.871 2.95 5.502 5.017-.313 1.756-2.794 4.354-7.124 4.354-4.489 0-8.794-1.792-11.514-4.795a7.726 7.726 0 1 0-11.45 10.375c5.684 6.274 14.054 9.872 22.965 9.872 11.174 0 20.568-7.188 22.336-17.091 1.341-7.512-1.991-17.297-15.366-22.231zM120.831 222.37a7.728 7.728 0 0 0-9.086 6.07l-4.542 22.822-7.295-23.68a7.728 7.728 0 0 0-9.659-5.109 7.714 7.714 0 0 0-5.245 5.638l-7.167 23.155-4.531-22.909a7.726 7.726 0 0 0-15.158 2.998l9.639 48.73c.072.368.173.731.299 1.086a8.849 8.849 0 0 0 8.332 5.884h.063a8.848 8.848 0 0 0 8.311-6.002l.064-.197 7.666-24.766 7.631 24.771a8.849 8.849 0 0 0 8.436 6.194h.059a8.85 8.85 0 0 0 8.314-5.995c.109-.321.197-.648.263-.98l9.677-48.624a7.729 7.729 0 0 0-6.071-9.086z" fill="#60B7FF" opacity="1" data-original="#60b7ff"></path></g><path fill="#8AC9FE" d="M415.759 96.24C373.086 53.567 316.349 30.065 256 30.065S138.913 53.567 96.24 96.24 30.066 195.651 30.066 256 53.567 373.087 96.24 415.76s99.41 66.175 159.76 66.175 117.087-23.502 159.76-66.175c42.674-42.674 66.175-99.411 66.175-159.76s-23.502-117.087-66.176-159.76zM111.432 408.833l9.593-9.242a7.727 7.727 0 0 0-10.723-11.128l-9.703 9.348c-34.194-37.439-55.08-87.23-55.08-141.811S66.405 151.628 100.6 114.189l9.703 9.348a7.7 7.7 0 0 0 5.36 2.162 7.727 7.727 0 0 0 5.362-13.291l-9.593-9.242C149.166 67.454 200.068 45.518 256 45.518c55.933 0 106.834 21.935 144.568 57.648l-9.593 9.243a7.726 7.726 0 0 0 10.722 11.128l9.702-9.348c34.195 37.439 55.081 87.231 55.081 141.812s-20.885 104.371-55.08 141.811l-9.702-9.348c-3.071-2.961-7.963-2.87-10.925.203s-2.87 7.964.202 10.925l9.593 9.243c-37.735 35.713-88.636 57.648-144.568 57.648-55.932-.001-106.834-21.937-144.568-57.65z" opacity="1" data-original="#8ac9fe" class=""></path></g></svg>