<svg xmlns="http://www.w3.org/2000/svg" version="1.1" xmlns:xlink="http://www.w3.org/1999/xlink" width="512" height="512" x="0" y="0" viewBox="0 0 482.16 482" style="enable-background:new 0 0 512 512" xml:space="preserve"><g><path fill="#FABE02" d="M419.852 177.973c0 63.84-51.75 115.59-115.59 115.59s-115.594-51.75-115.594-115.59S240.422 62.379 304.262 62.379c63.84 0 115.59 51.754 115.59 115.594zm0 0" opacity="1" data-original="#fabe02"></path><path fill="#F59A1D" d="M304.273 62.363c-5.421.008-10.836.39-16.207 1.153 57.012 8.066 99.387 56.863 99.387 114.441 0 57.574-42.375 106.371-99.387 114.438 42.852 6.14 85.54-12.176 110.618-47.461 25.078-35.282 28.34-81.621 8.457-120.07s-59.582-62.571-102.868-62.5zm0 0" opacity="1" data-original="#f59a1d"></path><path fill="#F59A1D" d="M350.746 197.824a68.345 68.345 0 0 0-42.926 15.121c-26.093-38.566-73.699-56.441-118.722-44.582-.262 3.172-.43 6.371-.43 9.602.008 53.793 37.121 100.472 89.527 112.605 52.407 12.133 106.258-13.488 129.907-61.804a68.582 68.582 0 0 0-57.356-30.942zm0 0" opacity="1" data-original="#f59a1d"></path><g fill="#FABE02"><path d="M304.273 42.172c-3.867 0-7-3.133-7-7V7.078a7.001 7.001 0 0 1 14 0v28.086c0 1.86-.734 3.64-2.05 4.953a6.99 6.99 0 0 1-4.95 2.055zM232.863 61.305a6.998 6.998 0 0 1-6.066-3.5l-14.043-24.328a7.001 7.001 0 0 1 2.582-9.524 7.002 7.002 0 0 1 9.539 2.524l14.047 24.328a7.004 7.004 0 0 1-6.059 10.5zM180.586 113.563a6.982 6.982 0 0 1-3.516-.93L152.742 98.59a7.002 7.002 0 1 1 7-12.125l24.328 14.043a7.003 7.003 0 0 1 3.266 7.879 6.995 6.995 0 0 1-6.77 5.183zM427.938 113.563a6.999 6.999 0 0 1-3.508-13.063l24.328-14.043a6.994 6.994 0 0 1 9.52 2.586 6.996 6.996 0 0 1-2.52 9.535l-24.328 14.047a6.984 6.984 0 0 1-3.493.938zM375.656 61.305a7.004 7.004 0 0 1-6.054-10.5l14.043-24.328a6.998 6.998 0 0 1 6.07-3.54 6.995 6.995 0 0 1 6.086 3.512 7.006 7.006 0 0 1-.031 7.028l-14.047 24.328a6.99 6.99 0 0 1-6.067 3.5zM304.273 355.863c-3.867 0-7-3.133-7-7v-28.097a7.001 7.001 0 0 1 14 0v28.086a6.998 6.998 0 0 1-7 7.012zM475.152 184.973H447.07a7.001 7.001 0 0 1 0-14h28.09c3.867 0 7 3.132 7 7 0 3.867-3.133 7-7 7zM161.473 184.973h-28.106a7.001 7.001 0 0 1 0-14h28.106c3.867 0 7 3.132 7 7 0 3.867-3.133 7-7 7zM389.71 332.973a6.996 6.996 0 0 1-6.07-3.5l-14.042-24.328a6.987 6.987 0 0 1-.032-7.028 6.984 6.984 0 0 1 6.082-3.512 6.998 6.998 0 0 1 6.07 3.54l14.048 24.328a7.004 7.004 0 0 1-6.059 10.5zM452.246 270.422a7.014 7.014 0 0 1-3.488-.942l-24.328-14.042a7.01 7.01 0 0 1-3.543-6.07 7.002 7.002 0 0 1 10.543-6.055l24.328 14.042a7.003 7.003 0 0 1-3.512 13.066zM156.273 270.422a7.003 7.003 0 0 1-6.77-5.188 7.005 7.005 0 0 1 3.267-7.879l24.3-14.042a7.002 7.002 0 0 1 10.543 6.055 7.01 7.01 0 0 1-3.543 6.07l-24.328 14.042a6.982 6.982 0 0 1-3.469.942zM218.809 332.973a7.004 7.004 0 0 1-6.055-10.5l14.043-24.328a6.998 6.998 0 0 1 6.07-3.54 6.984 6.984 0 0 1 6.082 3.512 6.996 6.996 0 0 1-.027 7.028l-14.047 24.328a6.998 6.998 0 0 1-6.066 3.5zm0 0" fill="#FABE02" opacity="1" data-original="#fabe02"></path></g><path fill="#26A3B9" d="M418.82 301.563c3.543-27.747-10.117-54.868-34.527-68.536-24.406-13.664-54.668-11.144-76.473 6.375-24.148-35.699-66.98-53.93-109.449-46.586-42.473 7.34-76.695 38.895-87.46 80.63-26.716-13.083-58.72-8.43-80.61 11.71s-29.184 51.649-18.367 79.356c10.812 27.71 37.52 45.949 67.265 45.941h331.2c28.671.094 52.562-21.95 54.773-50.535 2.21-28.586-18.008-54.04-46.352-58.356zm0 0" opacity="1" data-original="#26a3b9"></path><path fill="#168AA5" d="M418.82 301.563a68.25 68.25 0 0 0-16.441-54.137 68.255 68.255 0 0 0-51.633-23.14 68.19 68.19 0 0 0-20.625 3.23c31.688 9.875 51.645 41.148 47.254 74.047 28.29 4.378 48.43 29.804 46.219 58.343-2.207 28.535-26.028 50.555-54.649 50.528h41.442c28.625.027 52.441-21.993 54.652-50.528 2.211-28.539-17.934-53.965-46.219-58.344zM79.625 266.043c5.598 45 33.035 60.582 33.035 60.582a113.605 113.605 0 0 1-1.75-53.2 71.826 71.826 0 0 0-31.285-7.382zm0 0" opacity="1" data-original="#168aa5"></path><path fill="#002D42" d="M417.672 131.348c2 4.859 3.68 9.84 5.035 14.918a6.998 6.998 0 0 1-8.598 8.722 7.011 7.011 0 0 1-4.925-5.125 109.223 109.223 0 0 0-4.457-13.199 7.001 7.001 0 1 1 12.945-5.328zM304.273 85.523c-3.867 0-7 3.133-7 7 0 3.868 3.133 7 7 7a78.752 78.752 0 0 1 67.938 39.243 6.998 6.998 0 0 0 9.52 2.468 6.997 6.997 0 0 0 2.597-9.48c-16.566-28.55-47.047-46.156-80.055-46.23zm-7-78.449v28.09a7.001 7.001 0 0 0 14 0V7.078a7.001 7.001 0 0 0-14 0zM215.316 23.91a6.998 6.998 0 0 0-2.562 9.567l14.043 24.328a6.998 6.998 0 0 0 12.152.027 6.996 6.996 0 0 0-.027-7.027l-14.047-24.328a7 7 0 0 0-9.559-2.567zm-34.73 89.653a7.001 7.001 0 0 0 3.504-13.063l-24.328-14.043a7.002 7.002 0 0 0-10.543 6.055 6.998 6.998 0 0 0 3.543 6.066l24.308 14.055a6.982 6.982 0 0 0 3.516.93zM458.32 89.016a7 7 0 0 0-9.562-2.563l-24.328 14.043a7.01 7.01 0 0 0-3.543 6.07 7.007 7.007 0 0 0 3.515 6.086 7.006 7.006 0 0 0 7.028-.03l24.328-14.048a7 7 0 0 0 2.562-9.55zm-86.16-28.653a6.998 6.998 0 0 0 5.313.703 6.983 6.983 0 0 0 4.25-3.265l14.047-24.328a7.006 7.006 0 0 0 .03-7.028 6.995 6.995 0 0 0-6.085-3.511 6.998 6.998 0 0 0-6.07 3.539L369.602 50.8a6.996 6.996 0 0 0 2.558 9.562zm102.992 110.61H447.07a7.001 7.001 0 0 0 0 14h28.09c3.867 0 7-3.133 7-7 0-3.868-3.133-7-7-7zm-341.785 0a7.001 7.001 0 0 0 0 14h28.106c3.867 0 7-3.133 7-7 0-3.868-3.133-7-7-7zM455.77 257.37l-24.329-14.043a7.002 7.002 0 0 0-10.543 6.055 7.01 7.01 0 0 0 3.543 6.07l24.329 14.043a6.997 6.997 0 0 0 9.52-2.586 7 7 0 0 0-2.52-9.539zM79.2 417.45h112.468a7.001 7.001 0 0 0 0-14H79.199C43.191 403.45 14 374.258 14 338.246c0-36.008 29.191-65.2 65.2-65.2a64.17 64.17 0 0 1 23.87 4.665 118.663 118.663 0 0 0 2.95 51.137 7 7 0 0 0 8.859 4.422c3.668-1.223 5.644-5.192 4.422-8.86a108.072 108.072 0 0 1-1.567-49.39c10.137-39.02 42.188-68.489 81.918-75.317 39.735-6.832 79.786 10.242 102.368 43.64a7.015 7.015 0 0 0 4.753 2.997 7.006 7.006 0 0 0 5.422-1.465 60.984 60.984 0 0 1 38.547-13.574 61.289 61.289 0 0 1 46.375 20.785 61.286 61.286 0 0 1 14.754 48.629 7.005 7.005 0 0 0 5.871 7.781 48.036 48.036 0 0 1 21.047 8.77 7 7 0 0 0 9.676-1.567 6.998 6.998 0 0 0-1.371-9.703 62.15 62.15 0 0 0-20.754-9.976c.05-1.04.074-2.051.074-3.051a75.241 75.241 0 0 0-18.613-49.547 121.74 121.74 0 0 0 19.05-65.457c0-3.867-3.132-7-7-7-3.867 0-7 3.133-7 7a107.862 107.862 0 0 1-15.355 55.598c-25.453-20.165-60.96-21.75-88.113-3.938-26.59-34.687-70.426-51.473-113.383-43.426-.21-2.758-.332-5.511-.332-8.226.02-47.403 30.777-89.317 75.992-103.551s94.438 2.504 121.61 41.348a7 7 0 0 0 11.464-8.036c-30.668-43.851-86.238-62.742-137.285-46.671-51.043 16.066-85.765 63.386-85.785 116.902 0 3.824.258 7.703.629 11.598a116.474 116.474 0 0 0-75.867 74.343 78.142 78.142 0 0 0-27.227-4.875C35.461 259.031 0 294.492 0 338.231c0 43.742 35.46 79.203 79.2 79.203zm392.995-61.808a61.333 61.333 0 0 0-4.617-23.446 6.988 6.988 0 0 0-5.547-4.418 6.994 6.994 0 0 0-7.394 9.743 47.827 47.827 0 0 1-4.555 44.757 47.817 47.817 0 0 1-39.695 21.172H262.199a7.001 7.001 0 0 0 0 14h148.188c34.12-.039 61.773-27.687 61.808-61.808zm-256.187 47.808a7.001 7.001 0 0 0 0 14h20.09c3.863 0 7-3.137 7-7 0-3.867-3.137-7-7-7zm0 0" opacity="1" data-original="#002d42"></path></g></svg>