<svg xmlns="http://www.w3.org/2000/svg" version="1.1" xmlns:xlink="http://www.w3.org/1999/xlink" width="512" height="512" x="0" y="0" viewBox="0 0 32 32" style="enable-background:new 0 0 512 512" xml:space="preserve"><defs><linearGradient xlink:href="#a" id="b" x1="14.499" x2="15.657" y1="22.076" y2="28.802" gradientUnits="userSpaceOnUse"></linearGradient><linearGradient xlink:href="#a" id="c" x1="15.999" x2="22.554" y1="1.384" y2="18.49" gradientUnits="userSpaceOnUse"></linearGradient></defs><g><linearGradient id="a"><stop offset="0" stop-color="#b0e7ff"></stop><stop offset="1" stop-color="#3cadff"></stop></linearGradient><linearGradient xlink:href="#a" id="b" x1="14.499" x2="15.657" y1="22.076" y2="28.802" gradientUnits="userSpaceOnUse"></linearGradient><linearGradient xlink:href="#a" id="c" x1="15.999" x2="22.554" y1="1.384" y2="18.49" gradientUnits="userSpaceOnUse"></linearGradient><g fill-rule="evenodd" clip-rule="evenodd"><path fill="url(&quot;#b&quot;)" d="M7.395 24.447a1 1 0 1 0-1.79-.894 1 1 0 0 0 1.79.894zm-2 4a1 1 0 1 0-1.79-.894 1 1 0 0 0 1.79.894zm4.21-.894a1 1 0 1 1 1.79.894 1 1 0 0 1-1.79-.894zm3.79-3.106a1 1 0 1 1-1.79-.894 1 1 0 0 1 1.79.894zM16.5 27a1 1 0 1 0 0 2 1 1 0 0 0 0-2zm2.895-2.553a1 1 0 1 1-1.789-.894 1 1 0 0 1 1.789.894zM22.5 27a1 1 0 1 0 0 2 1 1 0 0 0 0-2zm2.894-2.553a1 1 0 1 1-1.788-.894 1 1 0 0 1 1.788.894z" opacity="1" data-original="url(#b)"></path><path fill="url(&quot;#c&quot;)" d="M30 15.5a5.502 5.502 0 0 0-4.316-5.372 4.345 4.345 0 0 0-6.768-3.386A7.241 7.241 0 0 0 6.002 11.1 5.002 5.002 0 0 0 7 21h17.5a5.5 5.5 0 0 0 5.5-5.5z" opacity="1" data-original="url(#c)"></path></g></g></svg>