<svg xmlns="http://www.w3.org/2000/svg" version="1.1" xmlns:xlink="http://www.w3.org/1999/xlink" width="512" height="512" x="0" y="0" viewBox="0 0 512 512" style="enable-background:new 0 0 512 512" xml:space="preserve" class="hovered-paths"><g><path fill="#F29500" d="M504.418 157.973c-.113 1.074-.504 2.156-1.223 3.168-24.433 34.359-67.972 52.48-111.617 42.476-56.515-12.945-92.773-68.933-81.379-125.781 5.973-29.781 23.602-54.063 47.078-69.227 1.043-.66 2.125-1.011 3.2-1.07 4.308-.281 8.253 3.836 6.863 8.617a109.381 109.381 0 0 0-2.227 9.07c-11.441 56.848 24.824 112.907 81.352 125.864 16.957 3.887 33.89 3.527 49.695-.383 4.82-1.18 8.738 2.969 8.258 7.266zm0 0" opacity="1" data-original="#f29500"></path><path fill="#FFB52D" d="M504.418 157.973c-22.48 12.648-49.555 17.285-76.672 11.074-56.52-12.95-92.773-68.934-81.383-125.785 2.63-13.067 7.489-25.082 14.114-35.723 4.308-.281 8.253 3.836 6.863 8.617a109.381 109.381 0 0 0-2.227 9.07c-11.441 56.848 24.825 112.907 81.352 125.864 16.957 3.887 33.89 3.527 49.695-.383 4.82-1.18 8.738 2.969 8.258 7.266zm0 0" opacity="1" data-original="#ffb52d"></path><path fill="#0956C6" d="M503.875 272.531c-.574 10.059-9.227 17.758-19.3 17.758h-205.5c-15.423 0-43.196-17.32-43.196-48.094 0-36.82 38.808-58.347 69.324-43.172 3.652 1.82 8.059-.078 9.094-4.023 7.375-28.18 33-48.973 63.492-48.973 5.598 0 11.035.7 16.23 2.024 21.422 5.453 38.641 21.445 45.801 42.129 1.012 2.91 3.946 4.629 7.004 4.226 29.602-3.926 53.153 25.028 44.168 52.95-.922 2.874.305 6.046 2.957 7.472 6.227 3.336 10.352 10.059 9.926 17.703zm0 0" opacity="1" data-original="#0956c6" class="hovered-path"></path><path fill="#0A4499" d="M400.414 174.59c0 9.383-2.168 17.71-5.719 24.906-10.254 20.852-31.968 32.211-45.59 32.211h-44.957c3.426 4.496 6.258 9.477 8.329 14.836 1.425 3.687 5.082 6.07 9.011 5.746 22.582-1.922 40.903 16.8 40.758 38H279.07c-15.418 0-43.191-17.32-43.191-48.094 0-36.82 38.808-58.343 69.324-43.172 3.652 1.82 8.059-.078 9.094-4.023 7.371-28.176 33-48.969 63.492-48.969a65.45 65.45 0 0 1 16.23 2.024c4.047 7.718 6.395 16.664 6.395 26.535zm0 0" opacity="1" data-original="#0a4499"></path><path fill="#0A4499" d="M363.492 334.91c.442 9.258-6.937 16.895-16.094 16.895H143.801c-12.696 0-35.555-14.25-35.555-39.582 0-22.668 17.86-38.293 37.379-39.504 5.73-.36 11.605.52 17.215 2.836 4.34 1.793 9.351-.57 10.785-5.051 7.004-21.727 27.375-37.45 51.438-37.45 22.968 0 42.578 14.333 50.394 34.532 1.273 3.289 4.527 5.414 8.035 5.121 21.516-1.832 38.684 17.36 36.078 37.79-.613 4.812 3.086 9.07 7.926 9.07h19.442c6.734 0 12.746 4.019 15.28 9.87a15.315 15.315 0 0 1 1.274 5.473zm0 0" opacity="1" data-original="#0a4499"></path><path fill="#0956C6" d="M362.219 329.438H179.867c-12.695 0-35.554-14.25-35.554-39.583 0-5.28.44-11.144 1.312-17.136 5.73-.36 11.605.52 17.215 2.836 4.34 1.793 9.351-.57 10.785-5.051 7.004-21.727 27.375-37.45 51.438-37.45 22.968 0 42.578 14.333 50.394 34.532 1.273 3.289 4.527 5.414 8.035 5.121 21.516-1.832 38.684 17.36 36.078 37.79-.613 4.812 3.086 9.07 7.926 9.07h19.442c6.734 0 12.746 4.019 15.28 9.87zm0 0" opacity="1" data-original="#0956c6" class="hovered-path"></path><path fill="#2476ED" d="M334.7 169.508a48.676 48.676 0 0 1-3.876 11.023c-9.14 18.59-28.5 28.719-40.648 28.719H28.762c-11.246 0-20.817-8.738-21.235-19.96-.433-11.806 9.008-21.517 20.723-21.517h34.773c1.993 0 3.395-1.945 2.774-3.847-9.95-30.574 16.976-62.371 49.785-55.719a2.915 2.915 0 0 0 3.406-2.023c8.52-28.739 35.133-49.715 66.64-49.715a69.29 69.29 0 0 1 24.962 4.62c21.906 8.43 38.473 27.65 43.18 51.138.484 2.375 3.148 3.527 5.234 2.285 16.164-9.68 35.094-8.989 50.133-.942 2.906 20.875 11.945 40.305 25.562 55.938zm0 0" opacity="1" data-original="#2476ed"></path><path fill="#5596FB" d="M334.7 169.508a48.676 48.676 0 0 1-3.876 11.023H113.078c-11.246 0-20.816-8.738-21.234-19.96-.434-11.805 9.008-21.516 20.722-21.516h34.774c1.992 0 3.394-1.946 2.773-3.848-9.941-30.574 16.977-62.371 49.785-55.707 1.493.3 2.965-.563 3.399-2.016a68.726 68.726 0 0 1 7.293-16.394c21.906 8.43 38.473 27.648 43.18 51.137.484 2.375 3.148 3.527 5.234 2.285 16.164-9.68 35.094-8.989 50.133-.942 2.906 20.875 11.945 40.305 25.562 55.938zm0 0" opacity="1" data-original="#5596fb"></path><path d="M402.098 307.512a7.515 7.515 0 0 0-10.114 3.265L378.36 337.38c-2.574 5.027 1.121 10.945 6.684 10.945a7.52 7.52 0 0 0 6.695-4.094l13.625-26.601a7.52 7.52 0 0 0-3.265-10.117zM464.719 307.52a7.514 7.514 0 0 0-10.121 3.242l-13.703 26.601a7.515 7.515 0 1 0 13.363 6.883l13.703-26.601a7.52 7.52 0 0 0-3.242-10.125zM236.375 387.441a7.517 7.517 0 0 0-10.102 3.309l-13.468 26.602c-1.88 3.703-.395 8.222 3.308 10.101a7.523 7.523 0 0 0 10.102-3.312l13.469-26.602a7.513 7.513 0 0 0-3.309-10.098zM298.766 387.45a7.519 7.519 0 0 0-10.11 3.284l-13.547 26.602a7.515 7.515 0 0 0 3.29 10.105 7.513 7.513 0 0 0 10.105-3.285l13.547-26.601a7.512 7.512 0 0 0-3.285-10.106zM361.156 387.457a7.515 7.515 0 0 0-10.117 3.262l-13.625 26.601a7.52 7.52 0 0 0 3.266 10.118c3.672 1.878 8.21.453 10.117-3.266l13.625-26.602a7.515 7.515 0 0 0-3.266-10.113zM423.547 387.46c-3.688-1.897-8.223-.444-10.125 3.243l-13.7 26.602c-2.593 5.03 1.114 10.957 6.676 10.957a7.508 7.508 0 0 0 6.688-4.075l13.703-26.601a7.52 7.52 0 0 0-3.242-10.125zM486.98 387.46a7.523 7.523 0 0 0-10.125 3.243l-13.703 26.602a7.518 7.518 0 0 0 13.367 6.883l13.7-26.602a7.518 7.518 0 0 0-3.239-10.125zM195.89 467.379c-3.699-1.875-8.222-.39-10.097 3.312l-13.473 26.602c-2.547 5.027 1.16 10.914 6.7 10.914a7.522 7.522 0 0 0 6.71-4.125l13.473-26.602c1.875-3.703.39-8.222-3.312-10.101zM172.855 387.441a7.517 7.517 0 0 0-10.101 3.309l-13.469 26.602c-2.55 5.027 1.16 10.914 6.7 10.914a7.515 7.515 0 0 0 6.71-4.125l13.47-26.598a7.517 7.517 0 0 0-3.31-10.102zM132.375 467.379a7.518 7.518 0 0 0-10.102 3.312l-13.472 26.602a7.516 7.516 0 1 0 13.41 6.789l13.473-26.602c1.875-3.703.39-8.222-3.309-10.101zM258.055 467.387c-3.7-1.88-8.227-.41-10.11 3.289l-13.547 26.601a7.513 7.513 0 0 0 3.286 10.106 7.515 7.515 0 0 0 10.109-3.285l13.547-26.602a7.518 7.518 0 0 0-3.285-10.11zM320.215 467.395a7.52 7.52 0 0 0-10.117 3.265l-13.625 26.602a7.52 7.52 0 0 0 6.683 10.945 7.526 7.526 0 0 0 6.7-4.094l13.62-26.601c1.895-3.696.43-8.223-3.261-10.117zM382.375 467.402a7.52 7.52 0 0 0-10.125 3.243l-13.7 26.601c-2.593 5.031 1.118 10.961 6.677 10.961a7.512 7.512 0 0 0 6.687-4.078l13.703-26.602a7.52 7.52 0 0 0-3.242-10.125zM67.84 227.555a7.522 7.522 0 0 0-10.102 3.312L44.27 257.47c-1.88 3.703-.395 8.222 3.308 10.101a7.523 7.523 0 0 0 10.102-3.312l13.468-26.602a7.518 7.518 0 0 0-3.308-10.101zM120.2 264.273l13.546-26.601a7.518 7.518 0 0 0-3.285-10.11c-3.7-1.878-8.227-.41-10.11 3.29l-13.546 26.601c-2.57 5.043 1.16 10.926 6.691 10.926a7.52 7.52 0 0 0 6.703-4.106zM27.355 307.496a7.518 7.518 0 0 0-10.101 3.313L3.785 337.41c-2.547 5.028 1.16 10.914 6.7 10.914a7.515 7.515 0 0 0 6.71-4.125l13.47-26.601c1.878-3.703.394-8.223-3.31-10.102zM89.746 307.504a7.517 7.517 0 0 0-10.105 3.289L66.09 337.395a7.515 7.515 0 0 0 3.289 10.105 7.509 7.509 0 0 0 10.105-3.285l13.547-26.602a7.515 7.515 0 0 0-3.285-10.11zM49.035 387.45c-3.7-1.884-8.226-.415-10.11 3.284L25.38 417.336a7.513 7.513 0 0 0 3.285 10.105 7.518 7.518 0 0 0 10.11-3.285l13.546-26.601a7.512 7.512 0 0 0-3.285-10.106zM111.195 387.457a7.513 7.513 0 0 0-10.113 3.262L87.457 417.32a7.521 7.521 0 0 0 3.262 10.118 7.52 7.52 0 0 0 10.117-3.266l13.621-26.602a7.51 7.51 0 0 0-3.262-10.113zm0 0" fill="#000000" opacity="1" data-original="#000000"></path><path d="M498.434 248.723c6.23-20.868-2.547-42.414-19.493-53.903a115.137 115.137 0 0 0 30.387-29.332c7.602-10.722-2.14-25.226-14.973-22.074-43.382 10.73-88.492-8.887-110.613-47.61a7.533 7.533 0 0 0-10.262-2.796c-3.597 2.062-4.847 6.652-2.793 10.262 25.145 43.988 75.961 66.39 125.122 55.246-9.13 12.273-20.856 22.125-34.094 29.02a47.572 47.572 0 0 0-15.059-.661c-15.289-42.59-65.097-60.8-104.078-39.262a72.155 72.155 0 0 0-9.973 6.602c-31.148-46.305-17.851-107.805 26.938-138.09-5.238 19.34-5.29 38.98-.75 57.383a7.52 7.52 0 0 0 9.086 5.512 7.52 7.52 0 0 0 5.504-9.102c-7.403-30.191 1.762-50.23 1.762-55.715 0-11.187-12.48-18.027-21.946-11.906-35.445 22.898-53.797 62.05-52.57 99.289-13.36-3.8-27.793-2.813-40.727 3.387-9.035-32.91-39.21-56.551-74.273-56.551-32.899 0-61.809 20.746-72.602 51.238-34.996-4.226-62.257 27.797-55.93 60.067H28.25c-15.582 0-28.25 12.675-28.25 28.25 0 15.582 12.668 28.25 28.25 28.25h86.59a7.514 7.514 0 0 0 7.515-7.516 7.519 7.519 0 0 0-7.515-7.516H28.25c-7.297 0-13.219-5.925-13.219-13.218 0-7.286 5.922-13.22 13.219-13.22h39c5.406 0 9.035-5.546 6.906-10.491-11.508-26.618 12.664-56.418 42.176-48.692 3.996 1.078 8.184-1.34 9.211-5.41 6.973-27.5 31.676-46.707 60.086-46.707 31.285 0 57.73 23.379 61.527 54.371.692 5.7 7.301 8.57 11.946 5.121 12.925-9.636 29.054-10.945 43.132-4.93 3.504 20.434 12.54 39.114 24.09 53.192-5.687 17.476-23.793 29.984-36.148 29.984H144.902a7.519 7.519 0 0 0-7.515 7.516 7.514 7.514 0 0 0 7.515 7.516h89.801a53.109 53.109 0 0 0-3.91 9.68c-28.168-2.5-55.29 15.21-63.902 43.077-30.067-12.875-65.547 8.805-65.547 43.383 0 28.75 25.511 47.098 43.07 47.098h59.813a7.519 7.519 0 0 0 7.515-7.516 7.519 7.519 0 0 0-7.515-7.515h-59.813c-8.379 0-28.039-10.914-28.039-32.067 0-27.105 30.676-41.015 51.195-25.746 4.598 3.438 11.254.617 11.946-5.11 3.765-30.761 35.992-48.874 64.015-37.245 13.239 5.48 23.547 16.933 27.235 31.484a7.505 7.505 0 0 0 9.21 5.422c21.329-5.61 39.29 15.926 30.813 35.562-2.129 4.95 1.5 10.493 6.906 10.493h30.313c4.75 0 8.61 3.859 8.61 8.597 0 4.75-3.86 8.61-8.61 8.61H234.289a7.514 7.514 0 0 0-7.516 7.515 7.514 7.514 0 0 0 7.516 7.516h113.719c13.039 0 23.64-10.602 23.64-23.64 0-13.028-10.601-23.63-23.64-23.63h-20.442c.668-4.64.516-9.617-.57-14.41h158.07c26.735 0 36.407-35.469 13.368-49.062zm-13.368 34.03H320.262c-8.223-11.515-21.922-18.714-37.028-17.374-6.554-17.328-20.496-30.543-37.629-36.387a38.755 38.755 0 0 1 7.172-12.765h37.399c22.496 0 49.433-22.266 52.793-51.028 33.129-24.867 81.144-7.937 91.18 32.137 1.023 4.05 5.156 6.488 9.21 5.422 28.145-7.457 50.891 21.738 38.63 46.898-2.153 4.407.433 9.692 5.292 10.672 5.282 1.043 9.11 5.711 9.11 11.102 0 6.242-5.082 11.324-11.325 11.324zm0 0" fill="#000000" opacity="1" data-original="#000000"></path></g></svg>