<svg xmlns="http://www.w3.org/2000/svg" version="1.1" xmlns:xlink="http://www.w3.org/1999/xlink" width="512" height="512" x="0" y="0" viewBox="0 0 64 64" style="enable-background:new 0 0 512 512" xml:space="preserve"><g><circle cx="56.9" cy="45.01" r="3.01" fill="#3482F1" opacity="1" data-original="#3482f1"></circle><circle cx="46.86" cy="58" r="2" fill="#8FCBF7" opacity="1" data-original="#8fcbf7"></circle><circle cx="4.9" cy="54.01" r="3.01" fill="#3482F1" opacity="1" data-original="#3482f1"></circle><circle cx="9.9" cy="43.85" r="2" fill="#8FCBF7" opacity="1" data-original="#8fcbf7"></circle><circle cx="32.9" cy="54.01" r="3.01" fill="#8FCBF7" opacity="1" data-original="#8fcbf7"></circle><path fill="#D8ECF1" d="M51 12c6.63 0 12 5.37 12 12s-5.37 12-12 12H9c-4.42 0-8-3.58-8-8s3.58-8 8-8h.06c.49-3.95 3.86-7 7.94-7 .69 0 1.37.09 2.01.25C19 13.17 18 1 31 1c5 0 6.68 2.51 8.87 4.93C45 4 48.86 6.49 49.86 10.8c.1.41.16.83.19 1.24.31-.02.63-.04.95-.04z" opacity="1" data-original="#d8ecf1"></path><g fill="#8FCBF7"><path d="M59.95 32c-2.2 2.46-5.39 4-8.95 4H9c-4.42 0-8-3.58-8-8s3.58-8 8-8h.06c.49-3.95 3.86-7 7.94-7 .69 0 1.37.09 2.01.25C19 13.17 18 1 31 1c1.95 0 3.39.38 4.56.99-2.01 3.37-1.7 7.22-1.69 7.26A8.32 8.32 0 0 0 31.86 9c-4.08 0-7.45 3.05-7.94 7h-.06c-4.42 0-8 3.58-8 8s3.58 8 8 8zM16.184 55c.035.098.072.193.116.285l-1.437 1.437a.999.999 0 1 0 1.414 1.414l1.437-1.437c.093.044.188.081.285.116v1.06l-1.417 1.417A.999.999 0 0 0 17.29 61a.997.997 0 0 0 .707-.293l1.005-1.005 1.005 1.005a.997.997 0 0 0 1.414 0 .999.999 0 0 0 0-1.414L20 57.871v-1.055a2.98 2.98 0 0 0 .285-.116l1.437 1.437a.997.997 0 0 0 1.414 0 .999.999 0 0 0 0-1.414l-1.437-1.437c.044-.093.082-.188.116-.285h1.056l1.421 1.421a.997.997 0 0 0 1.414 0 .999.999 0 0 0 0-1.414l-1.005-1.005 1.005-1.005a.999.999 0 1 0-1.414-1.414L22.876 53h-1.06a2.98 2.98 0 0 0-.116-.285l1.437-1.437a.999.999 0 1 0-1.414-1.414l-1.437 1.437a2.932 2.932 0 0 0-.285-.116v-1.056l1.421-1.421a.999.999 0 1 0-1.414-1.414l-1.005 1.005-1.005-1.005a.999.999 0 1 0-1.414 1.414L18 50.124v1.06a2.98 2.98 0 0 0-.285.116l-1.437-1.437a.999.999 0 1 0-1.414 1.414l1.437 1.437a2.932 2.932 0 0 0-.116.285h-1.06l-1.417-1.417a.999.999 0 1 0-1.414 1.414l1.005 1.005-1.005 1.005a.999.999 0 1 0 1.414 1.414L15.129 55zM18 54a1 1 0 1 1 2 0 1 1 0 0 1-2 0zM49.707 43.583a.999.999 0 0 0-1.414 0L46.876 45h-1.06a2.98 2.98 0 0 0-.116-.285l1.437-1.437a.999.999 0 1 0-1.414-1.414l-1.437 1.437a2.932 2.932 0 0 0-.285-.116v-1.056l1.421-1.421a.999.999 0 1 0-1.414-1.414l-1.005 1.005-1.005-1.005a.999.999 0 1 0-1.414 1.414L42 42.124v1.06a2.98 2.98 0 0 0-.285.116l-1.437-1.437a.999.999 0 1 0-1.414 1.414l1.437 1.437a2.932 2.932 0 0 0-.116.285h-1.06l-1.417-1.417a.999.999 0 1 0-1.414 1.414l1.005 1.005-1.005 1.005a.999.999 0 1 0 1.414 1.414L39.129 47h1.056c.035.098.072.193.116.285l-1.437 1.437a.999.999 0 1 0 1.414 1.414l1.437-1.437c.093.044.188.081.285.116v1.06l-1.417 1.417A.999.999 0 0 0 41.29 53a.997.997 0 0 0 .707-.293l1.005-1.005 1.005 1.005a.997.997 0 0 0 1.414 0 .999.999 0 0 0 0-1.414L44 49.871v-1.055a2.98 2.98 0 0 0 .285-.116l1.437 1.437a.997.997 0 0 0 1.414 0 .999.999 0 0 0 0-1.414l-1.437-1.437c.044-.093.082-.188.116-.285h1.056l1.421 1.421a.997.997 0 0 0 1.414 0 .999.999 0 0 0 0-1.414l-1.005-1.005 1.005-1.005a1 1 0 0 0 .001-1.415zM44 46a1 1 0 1 1-2 0 1 1 0 0 1 2 0z" fill="#8FCBF7" opacity="1" data-original="#8fcbf7"></path></g><path fill="#3482F1" d="M50 40a1 1 0 1 0 0 2 1 1 0 0 0 0-2z" opacity="1" data-original="#3482f1"></path><path fill="#8FCBF7" d="M55 54a1 1 0 1 0 0 2 1 1 0 0 0 0-2z" opacity="1" data-original="#8fcbf7"></path><path fill="#3482F1" d="M39 59a1 1 0 1 0 0 2 1 1 0 0 0 0-2zM28 45a1 1 0 1 0 0 2 1 1 0 0 0 0-2z" opacity="1" data-original="#3482f1"></path><path fill="#8FCBF7" d="M10 60a1 1 0 1 0 0 2 1 1 0 0 0 0-2z" opacity="1" data-original="#8fcbf7"></path><path fill="#3482F1" d="M3 43a1 1 0 1 0 0 2 1 1 0 0 0 0-2zM18 41.999a1 1 0 1 0 0-2 1 1 0 0 0 0 2z" opacity="1" data-original="#3482f1"></path></g></svg>