<svg xmlns="http://www.w3.org/2000/svg" version="1.1" xmlns:xlink="http://www.w3.org/1999/xlink" width="512" height="512" x="0" y="0" viewBox="0 0 64 64" style="enable-background:new 0 0 512 512" xml:space="preserve"><g><g data-name="Layer 31"><path fill="#F8C460" d="M60.159 30.912c-8.571 0-15.519-7.227-15.519-16.141A16.651 16.651 0 0 1 45.679 9 15.979 15.979 0 0 0 33 24.859C33 33.773 39.948 41 48.52 41A15.545 15.545 0 0 0 63 30.629a14.956 14.956 0 0 1-2.841.283z" opacity="1" data-original="#f8c460"></path><path fill="#FAAF42" d="M58.278 37.332a4.176 4.176 0 0 1-2.828-2.76 10.991 10.991 0 0 0-12.5-7.379 4.044 4.044 0 0 1-4.377-2.293 14.08 14.08 0 0 0-4.673-5.442 16.651 16.651 0 0 0-.9 5.4C33 33.773 39.948 41 48.52 41a15.056 15.056 0 0 0 9.816-3.651z" opacity="1" data-original="#faaf42"></path><path fill="#62B5E8" d="M38.847 31.043a13.982 13.982 0 0 0-27.694 0A10.995 10.995 0 0 0 12 53h26a10.995 10.995 0 0 0 .847-21.957z" opacity="1" data-original="#62b5e8"></path><path fill="#44A7D8" d="M41 50H15a10.986 10.986 0 0 1-9.136-17.108A10.986 10.986 0 0 0 12 53h26a10.988 10.988 0 0 0 9.132-4.868A10.945 10.945 0 0 1 41 50z" opacity="1" data-original="#44a7d8"></path><path fill="#44A7D8" d="M49 42a10.994 10.994 0 0 0-10.153-10.957 13.941 13.941 0 0 0-.556-2.39A11 11 0 0 0 31.05 38H31a8 8 0 0 0-3.87 15H38a11 11 0 0 0 11-11z" opacity="1" data-original="#44a7d8"></path><path fill="#62B5E8" d="M55 39h-.05a10.995 10.995 0 0 0-21.9 0H33a8 8 0 0 0 0 16h22a8 8 0 0 0 0-16z" opacity="1" data-original="#62b5e8"></path><path fill="#44A7D8" d="M58 52H36a7.993 7.993 0 0 1-6.951-11.951A8 8 0 0 0 33 55h22a7.993 7.993 0 0 0 6.951-4.049A7.959 7.959 0 0 1 58 52z" opacity="1" data-original="#44a7d8"></path></g></g></svg>